<svg id="svg" version="1.1" xmlns="http://www.w3.org/2000/svg" xmlns:xlink="http://www.w3.org/1999/xlink" width="400" height="400" viewBox="0, 0, 400,400"><g id="svgg"><path id="path0" d="M196.146 37.331 C 195.076 37.733,193.885 38.159,193.500 38.278 C 193.115 38.396,192.800 38.652,192.800 38.847 C 192.800 39.041,192.549 39.200,192.241 39.200 C 191.559 39.200,189.454 41.542,188.553 43.305 C 188.189 44.017,187.646 44.744,187.346 44.920 C 187.046 45.096,186.800 45.501,186.800 45.820 C 186.800 46.139,186.620 46.400,186.400 46.400 C 186.180 46.400,186.000 46.642,186.000 46.938 C 186.000 47.234,185.640 47.802,185.200 48.200 C 184.760 48.598,184.400 49.157,184.400 49.442 C 184.400 49.727,184.149 50.104,183.841 50.280 C 183.534 50.456,182.867 51.320,182.360 52.200 C 181.852 53.080,181.204 53.944,180.919 54.120 C 180.633 54.296,180.400 54.686,180.400 54.987 C 180.400 55.287,180.265 55.593,180.100 55.667 C 179.703 55.843,178.002 58.279,177.993 58.684 C 177.989 58.858,177.539 59.424,176.993 59.942 C 176.447 60.460,176.000 61.090,176.000 61.342 C 175.999 61.739,175.451 62.504,173.598 64.693 C 173.369 64.965,172.788 65.865,172.309 66.693 C 171.829 67.522,171.204 68.344,170.919 68.520 C 170.633 68.696,170.400 69.101,170.400 69.420 C 170.400 69.739,170.220 70.000,170.000 70.000 C 169.780 70.000,169.600 70.242,169.600 70.538 C 169.600 70.834,169.240 71.402,168.800 71.800 C 168.360 72.198,168.000 72.757,168.000 73.042 C 168.000 73.327,167.749 73.704,167.441 73.880 C 167.134 74.056,166.467 74.920,165.960 75.800 C 165.452 76.680,164.804 77.544,164.519 77.720 C 164.233 77.896,164.000 78.286,164.000 78.587 C 164.000 78.887,163.865 79.193,163.700 79.267 C 163.368 79.414,161.600 81.853,161.600 82.163 C 161.600 82.271,161.150 82.844,160.600 83.438 C 160.050 84.031,159.600 84.716,159.600 84.958 C 159.599 85.341,159.043 86.113,157.198 88.293 C 156.969 88.565,156.388 89.465,155.909 90.293 C 155.429 91.122,154.804 91.944,154.519 92.120 C 154.233 92.296,154.000 92.686,154.000 92.987 C 154.000 93.287,153.865 93.593,153.700 93.667 C 153.255 93.865,151.600 96.305,151.600 96.764 C 151.600 96.982,151.349 97.304,151.041 97.480 C 150.734 97.656,150.067 98.520,149.560 99.400 C 149.052 100.280,148.404 101.144,148.119 101.320 C 147.833 101.496,147.600 101.886,147.600 102.187 C 147.600 102.487,147.465 102.793,147.300 102.867 C 146.968 103.014,145.200 105.453,145.200 105.763 C 145.200 105.871,144.750 106.444,144.200 107.038 C 143.650 107.631,143.200 108.316,143.200 108.558 C 143.199 108.941,142.643 109.713,140.798 111.893 C 140.569 112.165,139.988 113.065,139.509 113.893 C 139.029 114.722,138.404 115.544,138.119 115.720 C 137.833 115.896,137.600 116.286,137.600 116.587 C 137.600 116.887,137.465 117.193,137.300 117.267 C 136.855 117.465,135.200 119.905,135.200 120.364 C 135.200 120.582,134.949 120.904,134.641 121.080 C 134.334 121.256,133.667 122.120,133.160 123.000 C 132.652 123.880,132.004 124.744,131.719 124.920 C 131.433 125.096,131.200 125.486,131.200 125.787 C 131.200 126.087,131.065 126.393,130.900 126.467 C 130.568 126.614,128.800 129.053,128.800 129.363 C 128.800 129.471,128.350 130.044,127.800 130.638 C 127.250 131.231,126.800 131.890,126.800 132.101 C 126.800 132.431,126.203 133.270,124.384 135.493 C 124.162 135.765,123.588 136.665,123.109 137.493 C 122.629 138.322,122.004 139.144,121.719 139.320 C 121.433 139.496,121.200 139.886,121.200 140.187 C 121.200 140.487,121.065 140.793,120.900 140.867 C 120.455 141.065,118.800 143.505,118.800 143.964 C 118.800 144.182,118.549 144.504,118.241 144.680 C 117.934 144.856,117.267 145.720,116.760 146.600 C 116.252 147.480,115.604 148.344,115.319 148.520 C 115.033 148.696,114.800 149.018,114.800 149.237 C 114.800 149.455,114.469 149.989,114.064 150.423 C 113.659 150.858,113.074 151.696,112.764 152.285 C 112.454 152.875,111.795 153.798,111.300 154.337 C 110.805 154.876,110.400 155.490,110.400 155.701 C 110.400 156.031,109.803 156.870,107.984 159.093 C 107.762 159.365,107.188 160.265,106.709 161.093 C 106.229 161.922,105.604 162.744,105.319 162.920 C 105.033 163.096,104.800 163.486,104.800 163.787 C 104.800 164.087,104.665 164.393,104.500 164.467 C 104.055 164.665,102.400 167.105,102.400 167.564 C 102.400 167.782,102.149 168.104,101.841 168.280 C 101.534 168.456,100.867 169.320,100.360 170.200 C 99.852 171.080,99.204 171.944,98.919 172.120 C 98.633 172.296,98.400 172.618,98.400 172.837 C 98.400 173.055,98.069 173.589,97.664 174.023 C 97.259 174.458,96.674 175.296,96.364 175.885 C 96.054 176.475,95.395 177.398,94.900 177.937 C 94.405 178.476,94.000 179.090,94.000 179.301 C 94.000 179.631,93.403 180.470,91.584 182.693 C 91.362 182.965,90.788 183.865,90.309 184.693 C 89.829 185.522,89.204 186.344,88.919 186.520 C 88.633 186.696,88.400 187.086,88.400 187.387 C 88.400 187.687,88.265 187.993,88.100 188.067 C 87.655 188.265,86.000 190.705,86.000 191.164 C 86.000 191.382,85.749 191.704,85.441 191.880 C 85.134 192.056,84.464 192.920,83.952 193.800 C 82.974 195.480,82.949 195.515,81.427 197.361 C 80.901 197.999,80.230 198.989,79.936 199.561 C 79.642 200.132,79.176 200.744,78.901 200.920 C 78.625 201.096,78.400 201.501,78.400 201.820 C 78.400 202.139,78.220 202.400,78.000 202.400 C 77.780 202.400,77.600 202.599,77.600 202.842 C 77.600 203.224,77.036 204.029,75.184 206.293 C 74.962 206.565,74.388 207.465,73.909 208.293 C 73.429 209.122,72.804 209.944,72.519 210.120 C 72.233 210.296,72.000 210.686,72.000 210.987 C 72.000 211.287,71.865 211.593,71.700 211.667 C 71.255 211.865,69.600 214.305,69.600 214.764 C 69.600 214.982,69.356 215.304,69.058 215.480 C 64.163 218.371,64.104 229.702,68.958 234.921 C 69.531 235.537,70.000 236.129,70.000 236.237 C 70.000 236.547,71.768 238.986,72.100 239.133 C 72.265 239.207,72.400 239.513,72.400 239.813 C 72.400 240.114,72.633 240.504,72.919 240.680 C 73.204 240.856,73.829 241.678,74.309 242.507 C 74.788 243.335,75.362 244.235,75.584 244.507 C 77.403 246.730,78.000 247.569,78.000 247.899 C 78.000 248.110,78.450 248.769,79.000 249.362 C 79.550 249.956,80.000 250.529,80.000 250.637 C 80.000 250.947,81.768 253.386,82.100 253.533 C 82.265 253.607,82.400 253.913,82.400 254.213 C 82.400 254.514,82.633 254.904,82.919 255.080 C 83.204 255.256,83.829 256.078,84.309 256.907 C 84.788 257.735,85.362 258.635,85.584 258.907 C 87.403 261.130,88.000 261.969,88.000 262.299 C 88.000 262.510,88.450 263.169,89.000 263.762 C 89.550 264.356,90.000 264.929,90.000 265.037 C 90.000 265.347,91.768 267.786,92.100 267.933 C 92.265 268.007,92.400 268.313,92.400 268.613 C 92.400 268.914,92.633 269.304,92.919 269.480 C 93.204 269.656,93.829 270.478,94.309 271.307 C 94.788 272.135,95.369 273.035,95.598 273.307 C 97.451 275.496,97.999 276.261,98.000 276.658 C 98.000 276.910,98.447 277.540,98.993 278.058 C 99.539 278.576,99.989 279.142,99.993 279.316 C 99.997 279.490,100.394 280.165,100.875 280.816 L 101.750 282.000 114.811 282.000 L 127.872 282.000 128.282 281.100 C 128.507 280.605,128.712 280.063,128.738 279.896 C 128.763 279.729,129.061 279.055,129.400 278.400 C 129.739 277.745,130.006 277.113,129.993 276.996 C 129.937 276.502,135.331 266.400,135.650 266.400 C 135.842 266.400,136.000 266.130,136.000 265.800 C 136.000 265.470,136.168 265.200,136.373 265.200 C 136.578 265.200,136.863 264.832,137.005 264.383 C 137.148 263.934,138.064 262.800,139.042 261.863 L 140.819 260.160 139.844 259.313 C 139.307 258.846,138.763 258.570,138.634 258.699 C 138.505 258.828,138.400 258.723,138.400 258.467 C 138.400 258.210,138.149 258.000,137.843 258.000 C 137.536 258.000,137.182 257.730,137.055 257.400 C 136.929 257.070,136.639 256.800,136.413 256.800 C 136.186 256.800,135.668 256.485,135.263 256.100 C 134.857 255.715,133.327 254.293,131.863 252.940 C 130.398 251.587,129.200 250.302,129.200 250.083 C 129.200 249.864,128.939 249.586,128.621 249.463 C 128.302 249.341,127.741 248.647,127.374 247.921 C 127.007 247.194,126.336 246.195,125.883 245.700 C 125.431 245.205,125.227 244.797,125.430 244.794 C 125.634 244.791,125.599 244.656,125.354 244.494 C 122.841 242.839,119.747 230.443,120.139 223.603 C 120.379 219.415,122.177 211.832,123.231 210.562 C 123.488 210.253,123.582 210.000,123.441 210.000 C 123.099 210.000,124.742 206.800,125.446 206.097 C 125.751 205.792,126.000 205.397,126.000 205.220 C 126.000 204.317,133.402 195.666,134.211 195.622 C 134.437 195.610,134.920 195.285,135.283 194.900 C 136.325 193.796,137.131 193.200,137.583 193.200 C 137.812 193.200,138.002 193.065,138.005 192.900 C 138.007 192.735,138.727 192.256,139.605 191.836 C 140.482 191.415,141.200 190.910,141.200 190.712 C 141.200 190.514,141.380 190.464,141.600 190.600 C 141.820 190.736,142.000 190.646,142.000 190.400 C 142.000 190.154,142.180 190.064,142.400 190.200 C 142.620 190.336,142.800 190.257,142.800 190.024 C 142.800 189.791,142.935 189.631,143.100 189.670 C 143.265 189.708,143.940 189.506,144.600 189.220 C 150.253 186.772,154.655 185.873,161.200 185.830 C 165.666 185.800,168.057 186.107,171.500 187.150 C 172.215 187.367,172.800 187.473,172.800 187.386 C 172.800 187.299,173.612 187.577,174.605 188.002 C 175.598 188.428,176.499 188.778,176.607 188.781 C 177.424 188.801,178.800 189.357,178.800 189.667 C 178.800 189.876,178.965 189.945,179.168 189.820 C 179.370 189.695,179.820 189.877,180.168 190.225 C 180.515 190.573,180.803 190.709,180.806 190.529 C 180.809 190.348,180.944 190.380,181.106 190.600 C 181.447 191.063,182.573 191.799,184.000 192.490 C 184.550 192.756,185.529 193.475,186.176 194.087 C 186.823 194.699,187.575 195.200,187.847 195.200 C 188.120 195.200,188.581 195.435,188.871 195.722 C 189.344 196.189,190.672 196.838,191.200 196.860 C 191.310 196.864,191.615 197.046,191.877 197.264 C 193.325 198.466,202.484 199.136,205.500 198.261 C 205.995 198.117,206.715 197.923,207.100 197.828 C 207.485 197.734,208.610 197.248,209.600 196.747 C 210.590 196.247,211.545 195.829,211.721 195.819 C 211.898 195.809,212.438 195.437,212.921 194.994 C 213.405 194.551,214.295 193.936,214.900 193.627 C 215.505 193.318,216.000 192.915,216.000 192.732 C 216.000 192.550,216.270 192.400,216.600 192.400 C 216.930 192.400,217.200 192.220,217.200 192.000 C 217.200 191.780,217.448 191.600,217.751 191.600 C 218.054 191.600,218.524 191.332,218.796 191.004 C 219.068 190.677,219.450 190.507,219.645 190.628 C 219.840 190.749,220.000 190.646,220.000 190.400 C 220.000 190.154,220.180 190.064,220.400 190.200 C 220.620 190.336,220.800 190.257,220.800 190.024 C 220.800 189.791,220.935 189.631,221.100 189.670 C 221.265 189.708,221.940 189.506,222.600 189.220 C 225.253 188.071,226.012 187.821,229.907 186.808 C 234.922 185.503,245.956 185.492,248.380 186.789 C 248.721 186.972,249.540 187.207,250.200 187.311 C 250.860 187.416,252.078 187.786,252.907 188.134 C 253.736 188.481,254.546 188.781,254.707 188.800 C 255.772 188.927,256.800 189.341,256.800 189.643 C 256.800 189.840,257.160 190.000,257.600 190.000 C 258.040 190.000,258.400 190.191,258.400 190.424 C 258.400 190.657,258.580 190.736,258.800 190.600 C 259.020 190.464,259.200 190.554,259.200 190.800 C 259.200 191.046,259.353 191.153,259.539 191.037 C 259.726 190.922,260.247 191.171,260.697 191.590 C 261.147 192.009,261.624 192.243,261.757 192.109 C 261.891 191.976,262.000 192.077,262.000 192.333 C 262.000 192.590,262.251 192.800,262.557 192.800 C 262.864 192.800,263.218 193.070,263.345 193.400 C 263.471 193.730,263.761 194.000,263.987 194.000 C 264.214 194.000,264.754 194.315,265.187 194.700 C 267.069 196.375,271.281 200.661,271.911 201.544 C 272.290 202.074,273.150 203.250,273.823 204.156 C 275.454 206.356,278.315 212.388,278.646 214.326 C 278.746 214.917,279.016 215.983,279.244 216.696 C 280.219 219.738,280.540 227.598,279.844 231.400 C 279.683 232.280,279.492 233.360,279.418 233.800 C 279.345 234.240,278.902 235.680,278.434 237.000 C 277.966 238.320,277.512 239.692,277.425 240.048 C 277.337 240.405,276.756 241.644,276.133 242.802 C 275.510 243.960,274.822 245.243,274.605 245.654 C 274.388 246.064,274.073 246.400,273.905 246.400 C 273.737 246.400,273.600 246.670,273.600 247.000 C 273.600 247.330,273.420 247.600,273.200 247.600 C 272.980 247.600,272.800 247.780,272.800 248.000 C 272.800 248.220,272.518 248.715,272.174 249.100 C 270.527 250.940,265.917 255.600,265.743 255.600 C 265.635 255.600,264.552 256.410,263.336 257.400 C 262.121 258.390,260.884 259.200,260.587 259.200 C 259.412 259.200,259.590 260.135,261.058 261.669 C 263.711 264.441,263.940 264.724,264.635 266.079 C 265.007 266.805,265.440 267.490,265.596 267.600 C 266.025 267.902,266.982 269.758,266.885 270.100 C 266.838 270.265,266.991 270.400,267.224 270.400 C 267.457 270.400,267.536 270.580,267.400 270.800 C 267.264 271.020,267.354 271.200,267.600 271.200 C 267.846 271.200,267.936 271.380,267.800 271.600 C 267.664 271.820,267.754 272.000,268.000 272.000 C 268.246 272.000,268.336 272.180,268.200 272.400 C 268.064 272.620,268.154 272.800,268.400 272.800 C 268.646 272.800,268.736 272.980,268.600 273.200 C 268.464 273.420,268.543 273.600,268.776 273.600 C 269.009 273.600,269.167 273.735,269.126 273.900 C 269.085 274.065,269.384 274.920,269.790 275.800 C 270.196 276.680,270.560 277.490,270.598 277.600 C 270.637 277.710,270.815 278.160,270.994 278.600 C 271.172 279.040,271.552 279.985,271.839 280.700 L 272.359 282.000 285.780 282.000 C 296.755 282.000,299.200 281.902,299.200 281.462 C 299.200 281.166,299.560 280.598,300.000 280.200 C 300.440 279.802,300.800 279.243,300.800 278.958 C 300.800 278.673,301.051 278.296,301.359 278.120 C 301.666 277.944,302.333 277.080,302.840 276.200 C 303.348 275.320,303.996 274.456,304.281 274.280 C 304.567 274.104,304.800 273.699,304.800 273.380 C 304.800 273.061,304.947 272.800,305.126 272.800 C 305.306 272.800,305.877 272.035,306.395 271.100 C 306.914 270.165,307.577 269.256,307.869 269.080 C 308.161 268.904,308.400 268.514,308.400 268.213 C 308.400 267.913,308.535 267.607,308.700 267.533 C 309.145 267.335,310.800 264.895,310.800 264.436 C 310.800 264.218,311.051 263.896,311.359 263.720 C 311.666 263.544,312.336 262.680,312.848 261.800 C 313.819 260.133,313.889 260.033,315.246 258.400 C 315.702 257.850,316.354 256.860,316.692 256.200 C 317.031 255.540,317.554 254.856,317.854 254.680 C 318.154 254.504,318.400 254.114,318.400 253.813 C 318.400 253.513,318.535 253.207,318.700 253.133 C 319.097 252.957,320.798 250.521,320.807 250.116 C 320.811 249.942,321.261 249.376,321.807 248.858 C 322.353 248.340,322.800 247.710,322.800 247.458 C 322.801 247.061,323.349 246.296,325.202 244.107 C 325.431 243.835,326.012 242.935,326.491 242.107 C 326.971 241.278,327.596 240.456,327.881 240.280 C 328.167 240.104,328.400 239.714,328.400 239.413 C 328.400 239.113,328.535 238.807,328.700 238.733 C 329.155 238.531,330.800 236.090,330.800 235.616 C 330.800 235.387,330.986 235.200,331.213 235.200 C 331.439 235.200,331.736 234.910,331.872 234.556 C 332.008 234.202,332.500 233.502,332.965 233.000 C 334.863 230.952,335.969 225.264,335.065 222.200 C 334.526 220.376,333.138 217.539,332.431 216.819 C 332.084 216.465,331.559 215.713,331.265 215.149 C 330.971 214.584,330.299 213.599,329.773 212.961 C 328.251 211.115,328.226 211.080,327.248 209.400 C 326.736 208.520,326.066 207.656,325.759 207.480 C 325.451 207.304,325.200 206.982,325.200 206.764 C 325.200 206.305,323.545 203.865,323.100 203.667 C 322.935 203.593,322.800 203.287,322.800 202.987 C 322.800 202.686,322.567 202.296,322.281 202.120 C 321.996 201.944,321.348 201.080,320.840 200.200 C 320.333 199.320,319.666 198.456,319.359 198.280 C 319.051 198.104,318.800 197.782,318.800 197.564 C 318.800 197.105,317.145 194.665,316.700 194.467 C 316.535 194.393,316.400 194.087,316.400 193.787 C 316.400 193.486,316.161 193.096,315.869 192.920 C 315.577 192.744,314.914 191.835,314.395 190.900 L 313.453 189.200 298.526 189.200 L 283.600 189.200 283.600 182.406 L 283.600 175.611 271.100 175.506 L 258.600 175.400 258.483 172.300 L 258.366 169.200 225.583 169.200 L 192.800 169.200 192.800 156.400 L 192.800 143.600 196.600 143.600 L 200.400 143.600 200.400 128.205 L 200.400 112.811 187.100 112.705 L 173.800 112.600 173.696 95.700 L 173.591 78.800 189.791 78.800 L 205.990 78.800 206.095 64.500 L 206.200 50.200 211.300 50.200 C 216.500 50.200,216.853 50.110,215.800 49.057 C 215.470 48.727,215.200 48.273,215.200 48.048 C 215.200 47.824,214.954 47.496,214.654 47.320 C 214.354 47.144,213.818 46.432,213.464 45.738 C 213.109 45.044,212.589 44.234,212.309 43.938 C 212.028 43.642,211.323 42.667,210.741 41.772 C 208.058 37.640,201.021 35.499,196.146 37.331 M266.400 43.400 L 266.400 50.400 273.700 50.400 L 281.000 50.401 280.882 43.400 L 280.764 36.400 273.582 36.400 L 266.400 36.400 266.400 43.400 M242.400 56.600 L 242.400 63.600 249.700 63.600 L 257.000 63.601 256.882 56.600 L 256.764 49.600 249.582 49.600 L 242.400 49.600 242.400 56.600 M212.000 67.200 L 212.000 78.400 223.200 78.400 L 234.400 78.400 234.400 67.200 L 234.400 56.000 223.200 56.000 L 212.000 56.000 212.000 67.200 M262.400 76.800 L 262.400 88.000 273.800 88.000 L 285.200 88.000 285.200 76.800 L 285.200 65.600 273.800 65.600 L 262.400 65.600 262.400 76.800 M179.400 95.700 L 179.400 107.000 190.900 107.000 L 202.400 107.000 202.400 95.700 L 202.400 84.400 190.900 84.400 L 179.400 84.400 179.400 95.700 M234.900 85.900 L 223.600 86.012 223.600 97.206 L 223.600 108.400 235.000 108.400 L 246.400 108.400 246.400 97.000 C 246.400 90.730,246.355 85.642,246.300 85.694 C 246.245 85.745,241.115 85.838,234.900 85.900 M257.118 101.800 L 257.236 108.800 264.418 108.800 L 271.600 108.800 271.600 101.800 L 271.600 94.800 264.300 94.800 L 257.000 94.799 257.118 101.800 M243.500 114.699 L 236.400 114.818 236.400 121.809 L 236.400 128.800 243.600 128.800 L 250.800 128.800 250.800 121.600 C 250.800 117.640,250.755 114.441,250.700 114.490 C 250.645 114.540,247.405 114.634,243.500 114.699 M208.000 125.400 L 208.000 132.400 215.200 132.400 L 222.400 132.400 222.400 125.400 L 222.400 118.400 215.200 118.400 L 208.000 118.400 208.000 125.400 M280.700 119.500 L 269.200 119.612 269.200 130.806 L 269.200 142.000 280.700 142.000 L 292.200 142.000 292.200 130.600 C 292.200 124.330,292.200 119.242,292.200 119.294 C 292.200 119.345,287.025 119.438,280.700 119.500 M299.600 143.700 L 299.600 150.800 306.800 150.800 L 314.000 150.800 314.000 143.817 L 314.000 136.835 306.800 136.717 L 299.599 136.600 299.600 143.700 M230.800 148.788 L 230.800 159.976 242.300 160.088 L 253.800 160.200 253.800 148.900 L 253.800 137.600 242.300 137.600 L 230.800 137.600 230.800 148.788 M198.317 156.500 L 198.435 163.600 205.617 163.600 L 212.800 163.600 212.800 156.500 L 212.800 149.400 205.500 149.400 L 198.200 149.400 198.317 156.500 M264.318 162.600 L 264.436 169.600 271.418 169.600 L 278.400 169.600 278.400 162.600 L 278.400 155.600 271.300 155.600 L 264.200 155.599 264.318 162.600 M289.200 172.400 L 289.200 183.600 300.600 183.600 L 312.000 183.600 312.000 172.400 L 312.000 161.200 300.600 161.200 L 289.200 161.200 289.200 172.400 M149.844 198.674 C 148.988 198.774,147.894 199.113,147.412 199.429 C 146.930 199.745,146.416 199.882,146.268 199.735 C 146.121 199.587,146.000 199.687,146.000 199.957 C 146.000 200.227,145.820 200.336,145.600 200.200 C 145.380 200.064,145.200 200.115,145.200 200.312 C 145.200 200.510,144.766 200.869,144.237 201.111 C 143.178 201.593,140.681 204.948,141.082 205.349 C 141.220 205.487,141.146 205.600,140.917 205.600 C 140.688 205.600,140.365 206.185,140.199 206.900 C 140.033 207.615,139.817 208.470,139.717 208.800 C 138.694 212.188,139.485 219.375,141.302 223.200 C 141.981 224.630,142.510 225.921,142.479 226.068 C 142.447 226.216,142.863 226.756,143.404 227.268 C 143.944 227.781,144.389 228.347,144.393 228.526 C 144.405 229.090,148.256 232.635,150.168 233.843 C 151.175 234.479,151.999 235.146,151.999 235.324 C 152.000 235.502,152.180 235.536,152.400 235.400 C 152.620 235.264,152.800 235.354,152.800 235.600 C 152.800 235.846,152.980 235.936,153.200 235.800 C 153.420 235.664,153.600 235.754,153.600 236.000 C 153.600 236.246,153.780 236.336,154.000 236.200 C 154.220 236.064,154.400 236.173,154.400 236.443 C 154.400 236.713,154.518 236.815,154.663 236.670 C 154.808 236.525,155.125 236.571,155.367 236.772 C 157.153 238.255,167.564 239.214,170.915 238.205 C 171.952 237.894,172.800 237.742,172.800 237.868 C 172.800 237.995,173.025 237.911,173.300 237.683 C 173.575 237.455,173.980 237.231,174.200 237.186 C 174.630 237.098,176.223 236.534,177.200 236.125 C 177.530 235.986,177.935 235.902,178.100 235.936 C 178.265 235.971,178.400 235.820,178.400 235.600 C 178.400 235.380,178.535 235.234,178.700 235.275 C 178.865 235.316,181.250 234.221,184.000 232.842 C 197.634 226.005,202.384 225.994,216.181 232.771 C 218.611 233.964,220.735 234.909,220.900 234.871 C 221.065 234.832,221.200 234.950,221.200 235.133 C 221.200 235.317,221.429 235.467,221.709 235.467 C 221.989 235.467,223.114 235.917,224.209 236.467 C 226.113 237.423,226.497 237.583,227.400 237.797 C 227.620 237.849,228.580 238.075,229.534 238.299 C 234.056 239.363,243.708 238.058,246.800 235.965 C 247.350 235.593,247.937 235.272,248.104 235.252 C 249.449 235.094,256.400 229.037,256.400 228.024 C 256.400 227.845,256.653 227.488,256.961 227.232 C 257.455 226.823,259.681 222.699,259.840 221.900 C 259.873 221.735,259.936 221.555,259.981 221.500 C 261.491 219.627,261.367 209.185,259.800 206.238 C 259.262 205.227,258.952 204.395,259.111 204.388 C 259.270 204.381,259.085 204.192,258.700 203.968 C 258.315 203.744,258.000 203.357,258.000 203.109 C 258.000 202.551,255.162 199.904,254.874 200.193 C 254.759 200.308,254.335 200.103,253.932 199.739 C 253.530 199.374,253.200 199.216,253.200 199.387 C 253.200 199.558,252.922 199.467,252.582 199.185 C 251.582 198.355,240.554 198.512,239.698 199.369 C 239.628 199.438,240.502 200.461,241.640 201.642 C 244.658 204.773,246.333 209.349,245.619 212.514 C 245.435 213.331,245.377 214.000,245.491 214.000 C 245.605 214.000,245.474 214.270,245.200 214.600 C 244.926 214.930,244.820 215.200,244.965 215.200 C 245.110 215.200,245.003 215.605,244.728 216.100 C 244.453 216.595,244.222 217.096,244.214 217.213 C 244.171 217.863,241.110 221.600,240.621 221.600 C 240.301 221.600,239.896 221.846,239.720 222.146 C 239.392 222.706,236.800 224.186,236.800 223.814 C 236.800 223.700,236.070 223.899,235.178 224.255 C 233.337 224.992,229.040 224.848,227.000 223.981 C 226.340 223.700,225.665 223.500,225.500 223.535 C 225.335 223.571,225.200 223.409,225.200 223.176 C 225.200 222.943,225.040 222.852,224.844 222.973 C 224.425 223.232,219.353 218.098,219.500 217.564 C 219.555 217.364,219.390 217.200,219.133 217.200 C 218.877 217.200,218.780 217.086,218.919 216.947 C 219.058 216.808,218.962 216.313,218.705 215.847 C 217.963 214.500,217.865 213.964,217.836 211.100 C 217.808 208.317,217.645 207.981,216.813 208.985 C 216.546 209.306,215.939 209.692,215.464 209.842 C 214.989 209.992,214.044 210.538,213.365 211.056 C 212.685 211.573,212.010 211.877,211.865 211.731 C 211.719 211.586,211.600 211.652,211.600 211.879 C 211.600 213.379,201.197 216.306,198.227 215.641 C 197.009 215.368,195.964 215.184,195.906 215.232 C 195.848 215.279,195.080 214.951,194.200 214.502 C 193.320 214.053,192.467 213.662,192.304 213.632 C 191.527 213.491,190.432 212.942,188.600 211.776 C 187.500 211.076,186.463 210.484,186.296 210.460 C 185.670 210.370,183.389 209.072,183.106 208.644 C 182.913 208.353,182.807 208.406,182.796 208.800 C 182.659 213.907,182.475 214.838,181.135 217.200 C 180.948 217.530,180.671 218.070,180.519 218.400 C 180.203 219.086,177.033 222.169,175.725 223.062 C 173.457 224.610,165.647 225.228,164.100 223.981 C 163.989 223.891,163.804 223.824,162.500 223.400 C 162.005 223.238,161.600 222.948,161.600 222.753 C 161.600 222.559,161.422 222.400,161.205 222.400 C 160.815 222.400,159.432 221.383,158.757 220.600 C 155.661 217.009,155.148 215.773,154.972 211.482 C 154.859 208.709,155.595 205.598,156.655 204.369 C 156.955 204.021,157.200 203.597,157.200 203.426 C 157.200 203.255,158.138 202.234,159.285 201.157 C 160.922 199.620,161.201 199.193,160.585 199.169 C 160.153 199.153,159.440 199.056,159.000 198.955 C 157.733 198.665,151.556 198.475,149.844 198.674 M165.860 252.276 C 165.817 252.317,165.278 252.443,164.663 252.554 C 162.960 252.863,160.010 254.740,159.514 255.830 C 159.270 256.363,158.890 256.800,158.669 256.800 C 158.448 256.800,158.387 256.920,158.534 257.068 C 158.681 257.215,158.503 257.666,158.137 258.070 C 155.980 260.453,159.686 270.000,162.768 270.000 C 163.006 270.000,163.200 270.180,163.200 270.400 C 163.200 270.620,163.470 270.800,163.800 270.800 C 164.130 270.800,164.400 270.936,164.400 271.102 C 164.400 271.269,164.944 271.646,165.609 271.940 C 166.274 272.234,167.039 272.685,167.309 272.943 C 167.938 273.542,175.702 277.364,176.100 277.270 C 176.265 277.232,176.400 277.410,176.400 277.667 C 176.400 277.923,176.510 278.023,176.645 277.888 C 176.914 277.620,183.075 280.667,183.929 281.490 C 184.219 281.771,184.610 282.000,184.796 282.000 C 184.982 282.000,185.387 282.097,185.696 282.215 C 186.982 282.709,187.616 273.451,186.601 269.000 C 186.451 268.340,186.276 267.440,186.212 267.000 C 186.065 265.975,184.910 262.553,184.188 261.000 C 182.887 258.199,177.225 253.568,174.400 252.994 C 170.467 252.195,166.302 251.845,165.860 252.276 M228.000 252.603 C 223.566 253.530,215.710 258.961,216.636 260.459 C 216.752 260.646,216.627 260.800,216.357 260.800 C 216.087 260.800,215.979 260.912,216.116 261.050 C 216.253 261.187,216.038 261.952,215.636 262.750 C 212.520 268.947,212.530 283.691,215.649 281.935 C 216.172 281.641,216.690 281.288,216.800 281.151 C 217.236 280.608,222.720 278.054,222.952 278.286 C 223.089 278.422,223.200 278.323,223.200 278.067 C 223.200 277.810,223.335 277.635,223.500 277.678 C 223.665 277.721,225.870 276.696,228.400 275.400 C 230.930 274.104,233.135 273.079,233.300 273.122 C 233.465 273.165,233.600 273.020,233.600 272.800 C 233.600 272.580,233.870 272.400,234.200 272.400 C 234.530 272.400,234.800 272.209,234.800 271.976 C 234.800 271.743,234.980 271.664,235.200 271.800 C 235.420 271.936,235.600 271.857,235.600 271.624 C 235.600 271.391,235.846 271.200,236.147 271.200 C 236.858 271.200,242.470 265.637,242.201 265.201 C 242.088 265.018,242.210 264.797,242.472 264.709 C 243.510 264.363,242.812 257.868,241.623 256.800 C 241.500 256.690,241.208 256.252,240.973 255.827 C 240.739 255.401,240.199 254.861,239.773 254.627 C 239.348 254.392,238.910 254.101,238.800 253.979 C 237.352 252.378,232.210 251.723,228.000 252.603 M80.000 299.480 C 80.000 299.734,79.775 300.181,79.499 300.471 C 79.224 300.762,78.643 301.675,78.208 302.500 C 77.774 303.325,77.268 304.000,77.085 304.000 C 76.902 304.000,76.847 304.153,76.963 304.339 C 77.078 304.526,76.819 305.059,76.386 305.523 C 75.954 305.987,75.600 306.492,75.600 306.646 C 75.600 306.799,75.158 307.504,74.617 308.213 C 74.077 308.921,73.747 309.613,73.884 309.751 C 74.021 309.888,73.923 310.000,73.667 310.000 C 73.410 310.000,73.200 310.270,73.200 310.600 C 73.200 310.930,73.020 311.200,72.800 311.200 C 72.580 311.200,72.400 311.456,72.400 311.769 C 72.400 312.082,71.955 312.867,71.411 313.514 C 70.867 314.160,70.537 314.804,70.678 314.944 C 70.818 315.085,70.723 315.200,70.467 315.200 C 70.210 315.200,70.000 315.470,70.000 315.800 C 70.000 316.130,69.820 316.400,69.600 316.400 C 69.380 316.400,69.200 316.656,69.200 316.969 C 69.200 317.282,68.755 318.067,68.211 318.714 C 67.667 319.360,67.337 320.004,67.478 320.144 C 67.618 320.285,67.523 320.400,67.267 320.400 C 67.010 320.400,66.800 320.670,66.800 321.000 C 66.800 321.330,66.620 321.600,66.400 321.600 C 66.180 321.600,66.000 321.856,66.000 322.169 C 66.000 322.482,65.555 323.267,65.011 323.914 C 64.467 324.560,64.137 325.204,64.278 325.344 C 64.418 325.485,64.323 325.600,64.067 325.600 C 63.810 325.600,63.600 325.870,63.600 326.200 C 63.600 326.530,63.420 326.800,63.200 326.800 C 62.980 326.800,62.800 327.056,62.800 327.369 C 62.800 327.682,62.355 328.467,61.811 329.114 C 61.267 329.760,60.937 330.404,61.078 330.544 C 61.218 330.685,61.123 330.800,60.867 330.800 C 60.610 330.800,60.400 331.070,60.400 331.400 C 60.400 331.730,60.220 332.000,60.000 332.000 C 59.780 332.000,59.600 332.256,59.600 332.569 C 59.600 332.882,59.168 333.651,58.641 334.278 C 58.114 334.905,57.274 336.224,56.776 337.209 C 56.278 338.194,55.556 339.360,55.172 339.800 C 54.788 340.240,54.068 341.410,53.572 342.400 C 53.076 343.390,52.356 344.560,51.972 345.000 C 51.588 345.440,50.868 346.610,50.372 347.600 C 49.876 348.590,49.156 349.760,48.772 350.200 C 48.388 350.640,47.668 351.810,47.172 352.800 C 46.676 353.790,45.953 354.960,45.565 355.400 C 45.177 355.840,44.387 357.100,43.808 358.200 C 43.230 359.300,42.233 360.920,41.592 361.800 C 39.824 364.228,39.922 364.329,44.204 364.473 L 48.008 364.600 48.770 362.978 C 49.189 362.085,49.817 361.118,50.166 360.829 C 50.515 360.539,50.800 360.067,50.800 359.780 C 50.800 359.492,51.078 358.979,51.418 358.639 C 52.190 357.867,55.004 353.407,55.732 351.800 C 56.031 351.140,56.574 350.353,56.938 350.051 C 57.302 349.749,57.600 349.254,57.600 348.951 C 57.600 348.648,57.791 348.400,58.024 348.400 C 58.257 348.400,58.336 348.220,58.200 348.000 C 58.064 347.780,58.098 347.599,58.276 347.597 C 58.612 347.595,59.580 346.090,60.912 343.500 C 61.336 342.675,61.845 342.000,62.042 342.000 C 62.239 342.000,62.400 341.730,62.400 341.400 C 62.400 341.070,62.591 340.800,62.824 340.800 C 63.057 340.800,63.136 340.620,63.000 340.400 C 62.864 340.180,62.898 339.999,63.076 339.997 C 63.412 339.995,64.380 338.490,65.712 335.900 C 66.136 335.075,66.645 334.400,66.842 334.400 C 67.039 334.400,67.200 334.143,67.200 333.829 C 67.200 332.090,67.849 332.000,80.340 332.000 C 92.899 332.000,93.600 332.106,93.600 334.005 C 93.600 334.222,93.767 334.400,93.971 334.400 C 94.175 334.400,94.660 335.120,95.048 336.000 C 95.436 336.880,95.899 337.600,96.077 337.600 C 96.255 337.600,96.400 337.870,96.400 338.200 C 96.400 338.530,96.559 338.800,96.754 338.800 C 96.949 338.800,97.408 339.430,97.773 340.200 L 98.438 341.600 102.405 341.600 L 106.373 341.600 105.247 339.900 C 104.627 338.965,103.701 337.345,103.189 336.300 C 102.677 335.255,102.110 334.400,101.929 334.400 C 101.748 334.400,101.600 334.130,101.600 333.800 C 101.600 333.470,101.409 333.200,101.176 333.200 C 100.943 333.200,100.849 333.044,100.967 332.853 C 101.085 332.663,100.830 332.189,100.400 331.800 C 99.970 331.411,99.715 330.937,99.833 330.747 C 99.951 330.556,99.873 330.400,99.659 330.400 C 99.322 330.400,98.818 329.562,97.005 325.980 C 96.788 325.551,96.473 325.200,96.305 325.200 C 96.137 325.200,96.000 324.944,96.000 324.631 C 96.000 324.318,95.534 323.508,94.964 322.831 C 94.395 322.154,94.066 321.600,94.234 321.600 C 94.402 321.600,94.173 321.195,93.725 320.700 C 93.277 320.205,92.250 318.580,91.443 317.090 C 90.636 315.599,89.666 314.019,89.288 313.577 C 88.909 313.135,88.634 312.645,88.676 312.487 C 88.717 312.329,88.420 311.840,88.014 311.400 C 87.226 310.544,84.942 306.659,84.546 305.500 C 84.414 305.115,84.148 304.800,83.953 304.800 C 83.759 304.800,83.600 304.544,83.600 304.231 C 83.600 303.918,83.155 303.133,82.611 302.486 C 82.067 301.840,81.684 301.241,81.759 301.156 C 81.834 301.070,81.469 300.554,80.948 300.008 C 80.427 299.463,80.000 299.225,80.000 299.480 M244.560 301.029 C 243.576 301.279,242.674 301.483,242.557 301.482 C 242.175 301.479,237.414 303.788,236.951 304.200 C 236.705 304.420,235.494 305.500,234.261 306.600 C 233.028 307.700,232.015 308.791,232.010 309.025 C 232.004 309.258,231.633 309.843,231.184 310.325 C 230.736 310.806,230.478 311.200,230.612 311.200 C 230.745 311.200,230.470 311.740,230.000 312.400 C 229.530 313.060,229.270 313.600,229.422 313.600 C 229.574 313.600,229.512 313.825,229.284 314.100 C 228.136 315.487,227.629 323.833,228.527 326.574 C 232.555 338.883,242.768 344.389,255.400 341.062 C 256.690 340.723,260.849 338.431,261.907 337.478 C 264.320 335.303,266.000 333.401,266.000 332.844 C 266.000 332.600,266.180 332.400,266.400 332.400 C 266.620 332.400,266.763 332.265,266.718 332.100 C 266.673 331.935,266.980 331.170,267.401 330.400 C 267.822 329.630,268.187 328.910,268.211 328.800 C 268.236 328.690,268.485 327.798,268.765 326.818 C 269.385 324.651,269.416 317.151,268.809 316.018 C 268.569 315.568,268.475 315.200,268.600 315.200 C 268.725 315.200,268.603 314.795,268.328 314.300 C 268.053 313.805,267.798 313.310,267.760 313.200 C 267.723 313.090,267.561 312.595,267.400 312.100 C 267.238 311.605,266.977 311.200,266.818 311.200 C 266.659 311.200,266.303 310.705,266.028 310.100 C 265.522 308.988,265.232 308.610,263.498 306.800 C 262.159 305.402,260.903 304.430,259.769 303.913 C 259.236 303.670,258.800 303.310,258.800 303.112 C 258.800 302.915,258.620 302.864,258.400 303.000 C 258.180 303.136,258.000 303.027,258.000 302.757 C 258.000 302.487,257.892 302.374,257.760 302.506 C 257.629 302.638,256.847 302.395,256.024 301.966 C 253.701 300.755,247.603 300.257,244.560 301.029 M110.799 321.300 L 110.800 341.600 114.200 341.600 L 117.600 341.600 117.600 334.600 L 117.600 327.600 121.700 327.554 C 126.847 327.497,127.658 327.397,129.118 326.642 C 129.767 326.307,130.411 326.145,130.549 326.283 C 130.687 326.421,130.800 326.352,130.800 326.130 C 130.800 325.908,131.430 325.387,132.200 324.972 C 132.970 324.557,133.600 324.079,133.600 323.909 C 133.600 323.739,133.952 323.248,134.382 322.818 C 138.702 318.498,136.854 303.600,131.997 303.600 C 131.779 303.600,131.600 303.409,131.600 303.176 C 131.600 302.943,131.420 302.864,131.200 303.000 C 130.980 303.136,130.800 303.027,130.800 302.757 C 130.800 302.487,130.686 302.380,130.547 302.519 C 130.408 302.658,129.913 302.562,129.447 302.305 C 128.091 301.558,127.709 301.513,121.400 301.348 C 118.100 301.262,114.365 301.148,113.099 301.095 L 110.799 301.000 110.799 321.300 M157.500 301.100 L 144.000 301.211 144.000 321.405 L 144.000 341.600 157.770 341.600 L 171.539 341.600 171.670 338.399 L 171.800 335.198 161.100 335.199 L 150.400 335.200 150.400 329.800 L 150.400 324.400 159.600 324.400 L 168.800 324.400 168.800 321.200 L 168.800 318.000 159.588 318.000 L 150.377 318.000 150.488 312.700 L 150.600 307.400 160.670 307.293 L 170.740 307.186 170.870 303.992 C 170.941 302.235,171.000 300.841,171.000 300.894 C 171.000 300.946,164.925 301.039,157.500 301.100 M276.307 321.300 L 276.414 341.600 279.607 341.600 L 282.800 341.600 282.800 334.600 L 282.800 327.600 285.938 327.600 C 289.097 327.600,290.400 328.164,290.400 329.531 C 290.400 329.789,290.577 330.000,290.792 330.000 C 291.008 330.000,291.298 330.450,291.436 331.000 C 291.574 331.550,291.847 332.000,292.043 332.000 C 292.240 332.000,292.400 332.199,292.400 332.442 C 292.400 332.686,292.940 333.567,293.600 334.400 C 294.260 335.233,294.800 336.114,294.800 336.358 C 294.800 336.601,294.977 336.800,295.192 336.800 C 295.408 336.800,295.698 337.250,295.836 337.800 C 295.974 338.350,296.247 338.800,296.443 338.800 C 296.640 338.800,296.806 339.025,296.813 339.300 C 296.859 341.012,298.224 341.600,302.152 341.600 C 306.394 341.600,306.513 341.473,304.532 339.069 C 304.019 338.447,303.600 337.765,303.600 337.553 C 303.600 337.101,301.939 334.662,301.498 334.466 C 301.331 334.392,301.297 334.167,301.421 333.966 C 301.545 333.765,301.457 333.600,301.224 333.600 C 300.991 333.600,300.800 333.345,300.800 333.033 C 300.800 332.722,300.628 332.407,300.417 332.333 C 300.207 332.260,299.582 331.390,299.029 330.400 C 296.350 325.603,296.349 325.600,296.992 325.600 C 297.326 325.600,297.600 325.463,297.600 325.295 C 297.600 325.127,297.990 324.812,298.467 324.595 C 298.944 324.378,299.529 323.854,299.767 323.432 C 300.005 323.009,300.470 322.328,300.800 321.919 C 301.130 321.509,301.415 321.045,301.434 320.887 C 301.452 320.729,301.699 320.060,301.982 319.400 C 302.488 318.221,302.731 311.211,302.309 310.000 C 301.669 308.168,300.987 306.800,300.712 306.800 C 300.541 306.800,300.400 306.561,300.400 306.270 C 300.400 305.626,298.734 304.000,298.074 304.000 C 297.813 304.000,297.600 303.820,297.600 303.600 C 297.600 303.380,297.411 303.200,297.181 303.200 C 296.950 303.200,296.005 302.809,295.081 302.332 C 293.561 301.547,292.577 301.442,284.800 301.232 L 276.200 301.000 276.307 321.300 M177.372 302.686 C 177.672 303.519,178.205 304.740,178.556 305.400 C 178.908 306.060,179.198 306.870,179.201 307.200 C 179.205 307.530,179.650 308.700,180.191 309.800 C 180.732 310.900,181.182 312.070,181.191 312.400 C 181.200 312.730,181.650 313.900,182.191 315.000 C 182.732 316.100,183.182 317.270,183.191 317.600 C 183.200 317.930,183.650 319.100,184.191 320.200 C 184.732 321.300,185.182 322.470,185.191 322.800 C 185.200 323.130,185.650 324.300,186.191 325.400 C 186.732 326.500,187.182 327.670,187.191 328.000 C 187.200 328.330,187.650 329.500,188.191 330.600 C 188.732 331.700,189.182 332.870,189.191 333.200 C 189.200 333.530,189.648 334.745,190.186 335.900 C 190.723 337.055,191.084 338.000,190.987 338.000 C 190.890 338.000,191.279 339.035,191.851 340.300 C 192.424 341.565,192.902 342.849,192.913 343.153 C 192.939 343.870,194.000 342.475,194.000 341.724 C 194.000 341.436,194.210 341.200,194.467 341.200 C 194.723 341.200,194.820 341.086,194.681 340.947 C 194.542 340.809,194.692 340.319,195.014 339.858 C 195.336 339.398,195.600 338.702,195.600 338.311 C 195.600 337.920,195.810 337.600,196.067 337.600 C 196.323 337.600,196.420 337.486,196.281 337.347 C 196.142 337.209,196.292 336.719,196.614 336.258 C 196.936 335.798,197.200 335.102,197.200 334.711 C 197.200 334.320,197.410 334.000,197.667 334.000 C 197.923 334.000,198.021 333.887,197.883 333.749 C 197.745 333.611,197.898 332.983,198.224 332.353 C 198.550 331.724,198.832 331.071,198.851 330.904 C 198.870 330.737,199.253 329.880,199.702 329.000 C 200.151 328.120,200.511 327.310,200.502 327.200 C 200.493 327.090,200.807 326.370,201.200 325.600 C 201.593 324.830,201.953 324.020,202.000 323.800 C 202.047 323.580,202.463 322.680,202.924 321.800 C 203.385 320.920,203.721 320.052,203.671 319.870 C 203.621 319.689,203.765 319.655,203.990 319.794 C 204.216 319.933,204.400 320.361,204.400 320.744 C 204.400 321.127,204.552 321.611,204.738 321.820 C 205.140 322.272,206.842 326.859,206.779 327.321 C 206.755 327.498,207.024 328.083,207.377 328.621 C 207.730 329.159,207.918 329.600,207.795 329.600 C 207.672 329.600,207.797 330.005,208.072 330.500 C 208.347 330.995,208.594 331.490,208.620 331.600 C 208.768 332.206,210.473 336.419,211.533 338.800 C 211.778 339.350,212.316 340.683,212.728 341.762 C 213.167 342.915,213.594 343.533,213.762 343.262 C 213.919 343.008,213.942 342.800,213.813 342.800 C 213.685 342.800,213.868 342.242,214.220 341.561 C 214.573 340.879,214.929 340.024,215.011 339.661 C 215.094 339.297,215.622 337.886,216.186 336.525 C 217.363 333.686,219.853 326.868,220.469 324.800 C 220.699 324.030,221.083 323.040,221.324 322.600 C 221.564 322.160,221.819 321.446,221.891 321.013 C 221.963 320.581,222.291 319.816,222.620 319.313 C 222.949 318.811,223.121 318.400,223.001 318.400 C 222.882 318.400,223.151 317.680,223.600 316.800 C 224.049 315.920,224.319 315.200,224.200 315.200 C 224.081 315.200,224.374 314.435,224.851 313.500 C 225.328 312.565,225.713 311.710,225.707 311.600 C 225.701 311.490,225.874 310.950,226.092 310.400 C 226.957 308.218,229.200 301.784,229.200 301.486 C 229.200 301.312,227.625 301.221,225.700 301.284 L 222.200 301.400 220.709 305.800 C 219.889 308.220,219.191 310.245,219.159 310.300 C 219.127 310.355,219.055 310.580,219.000 310.800 C 218.945 311.020,218.855 311.290,218.800 311.400 C 218.745 311.510,218.655 311.780,218.600 312.000 C 218.545 312.220,218.455 312.490,218.400 312.600 C 218.345 312.710,218.255 312.980,218.200 313.200 C 218.145 313.420,218.055 313.690,218.000 313.800 C 217.945 313.910,217.855 314.180,217.800 314.400 C 217.745 314.620,217.655 314.890,217.600 315.000 C 217.545 315.110,217.455 315.380,217.400 315.600 C 217.345 315.820,217.255 316.090,217.200 316.200 C 217.145 316.310,217.055 316.580,217.000 316.800 C 216.945 317.020,216.855 317.290,216.800 317.400 C 216.745 317.510,216.655 317.780,216.600 318.000 C 216.545 318.220,216.455 318.490,216.400 318.600 C 216.345 318.710,216.255 318.980,216.200 319.200 C 216.145 319.420,216.055 319.690,216.000 319.800 C 215.945 319.910,215.855 320.180,215.800 320.400 C 215.745 320.620,215.655 320.890,215.600 321.000 C 215.545 321.110,215.455 321.380,215.400 321.600 C 215.345 321.820,215.255 322.090,215.200 322.200 C 215.145 322.310,215.055 322.580,215.000 322.800 C 214.945 323.020,214.855 323.290,214.800 323.400 C 214.745 323.510,214.655 323.780,214.600 324.000 C 214.545 324.220,214.456 324.535,214.403 324.700 C 214.349 324.865,214.321 325.118,214.340 325.262 C 214.478 326.308,213.173 326.377,212.795 325.343 C 212.566 324.715,212.040 323.300,211.627 322.200 C 210.758 319.886,210.495 319.079,210.519 318.800 C 210.528 318.690,210.288 318.150,209.987 317.600 C 209.685 317.050,209.404 316.398,209.362 316.151 C 209.320 315.904,208.978 315.004,208.602 314.151 C 208.226 313.298,207.738 312.150,207.517 311.600 C 207.041 310.413,206.279 308.587,205.681 307.200 C 205.444 306.650,204.834 305.078,204.325 303.706 L 203.400 301.212 200.100 301.206 C 196.765 301.200,196.454 301.359,197.168 302.705 C 197.484 303.301,198.857 306.757,199.829 309.400 C 200.415 310.993,200.419 312.041,199.844 313.308 C 198.231 316.863,197.523 318.558,197.403 319.149 C 197.231 319.999,196.523 321.894,195.815 323.400 C 195.208 324.691,194.690 326.037,194.635 326.467 C 194.533 327.248,193.982 327.183,193.648 326.352 C 193.106 325.004,192.695 323.866,192.582 323.400 C 192.529 323.180,192.000 321.740,191.407 320.200 C 190.814 318.660,190.268 317.130,190.195 316.800 C 190.121 316.470,190.025 316.155,189.981 316.100 C 189.936 316.045,189.875 315.865,189.845 315.700 C 189.788 315.387,188.962 313.181,188.385 311.800 C 188.075 311.060,187.533 309.404,187.370 308.700 C 187.331 308.535,187.271 308.355,187.236 308.300 C 187.200 308.245,186.662 306.670,186.040 304.800 L 184.908 301.400 180.867 301.286 L 176.826 301.172 177.372 302.686 M310.302 301.466 C 310.579 301.577,310.703 301.833,310.579 302.034 C 310.455 302.235,310.543 302.400,310.776 302.400 C 311.009 302.400,311.200 302.670,311.200 303.000 C 311.200 303.330,311.380 303.600,311.600 303.600 C 311.820 303.600,312.000 303.836,312.000 304.125 C 312.000 304.413,312.315 305.005,312.700 305.440 C 313.887 306.780,315.200 308.746,315.200 309.184 C 315.200 309.413,315.377 309.600,315.592 309.600 C 315.808 309.600,316.098 310.050,316.236 310.600 C 316.374 311.150,316.647 311.600,316.843 311.600 C 317.040 311.600,317.200 311.789,317.200 312.020 C 317.200 312.498,320.443 317.330,320.900 317.533 C 321.065 317.607,321.200 317.922,321.200 318.233 C 321.200 318.545,321.391 318.800,321.624 318.800 C 321.857 318.800,321.936 318.980,321.800 319.200 C 321.664 319.420,321.722 319.600,321.930 319.600 C 322.933 319.600,322.644 321.284,321.365 322.893 C 320.618 323.832,320.006 324.812,320.004 325.071 C 320.002 325.331,319.775 325.786,319.500 326.082 C 318.561 327.096,317.200 329.167,317.200 329.584 C 317.200 329.813,317.009 330.000,316.776 330.000 C 316.543 330.000,316.455 330.165,316.579 330.366 C 316.703 330.567,316.669 330.792,316.502 330.866 C 316.045 331.069,314.400 333.509,314.400 333.984 C 314.400 334.213,314.238 334.400,314.039 334.400 C 313.841 334.400,313.502 334.906,313.286 335.524 C 313.071 336.143,312.607 336.936,312.256 337.287 C 311.904 337.639,311.177 338.753,310.640 339.763 L 309.663 341.600 313.869 341.600 C 317.738 341.600,318.092 341.536,318.284 340.800 C 318.399 340.360,318.682 340.000,318.913 340.000 C 319.144 340.000,319.217 339.884,319.075 339.742 C 318.933 339.600,319.353 338.754,320.008 337.863 C 320.664 336.972,321.200 336.008,321.200 335.721 C 321.200 335.435,321.410 335.200,321.667 335.200 C 321.923 335.200,322.014 335.081,321.869 334.935 C 321.723 334.790,322.027 334.115,322.544 333.435 C 323.062 332.756,323.613 331.795,323.769 331.300 C 323.926 330.805,324.222 330.400,324.427 330.400 C 324.632 330.400,324.762 330.265,324.715 330.100 C 324.537 329.472,326.364 326.800,326.971 326.800 C 327.097 326.800,327.200 327.070,327.200 327.400 C 327.200 327.730,327.380 328.000,327.600 328.000 C 327.820 328.000,328.000 328.270,328.000 328.600 C 328.000 328.930,328.180 329.200,328.400 329.200 C 328.620 329.200,328.800 329.470,328.800 329.800 C 328.800 330.130,328.980 330.400,329.200 330.400 C 329.420 330.400,329.600 330.670,329.600 331.000 C 329.600 331.330,329.780 331.600,330.000 331.600 C 330.220 331.600,330.400 331.870,330.400 332.200 C 330.400 332.530,330.577 332.800,330.792 332.800 C 331.008 332.800,331.298 333.250,331.436 333.800 C 331.574 334.350,331.847 334.800,332.043 334.800 C 332.240 334.800,332.400 335.070,332.400 335.400 C 332.400 335.730,332.580 336.000,332.800 336.000 C 333.020 336.000,333.200 336.270,333.200 336.600 C 333.200 336.930,333.380 337.200,333.600 337.200 C 333.820 337.200,334.000 337.470,334.000 337.800 C 334.000 338.130,334.180 338.400,334.400 338.400 C 334.620 338.400,334.800 338.670,334.800 339.000 C 334.800 339.330,334.980 339.600,335.200 339.600 C 335.420 339.600,335.600 339.870,335.600 340.200 C 335.600 340.530,335.780 340.800,336.000 340.800 C 336.220 340.800,336.400 341.070,336.400 341.400 C 336.400 341.730,336.580 342.000,336.800 342.000 C 337.020 342.000,337.200 342.270,337.200 342.600 C 337.200 342.930,337.380 343.200,337.600 343.200 C 337.820 343.200,338.000 343.470,338.000 343.800 C 338.000 344.130,338.180 344.400,338.400 344.400 C 338.620 344.400,338.800 344.585,338.800 344.811 C 338.800 345.196,345.839 355.967,346.374 356.400 C 346.510 356.510,347.788 358.400,349.213 360.600 L 351.805 364.600 356.107 364.600 C 361.026 364.600,360.895 364.857,358.028 360.840 C 356.913 359.276,356.000 357.818,356.000 357.599 C 356.000 357.379,355.820 357.200,355.600 357.200 C 355.380 357.200,355.200 356.930,355.200 356.600 C 355.200 356.270,355.020 356.000,354.800 356.000 C 354.580 356.000,354.400 355.730,354.400 355.400 C 354.400 355.070,354.223 354.800,354.008 354.800 C 353.792 354.800,353.502 354.350,353.364 353.800 C 353.226 353.250,352.953 352.800,352.757 352.800 C 352.560 352.800,352.400 352.530,352.400 352.200 C 352.400 351.870,352.220 351.600,352.000 351.600 C 351.780 351.600,351.600 351.330,351.600 351.000 C 351.600 350.670,351.420 350.400,351.200 350.400 C 350.980 350.400,350.800 350.207,350.800 349.971 C 350.800 349.486,345.163 341.072,344.700 340.867 C 344.535 340.793,344.400 340.478,344.400 340.167 C 344.400 339.855,344.220 339.600,344.000 339.600 C 343.780 339.600,343.600 339.330,343.600 339.000 C 343.600 338.670,343.440 338.400,343.243 338.400 C 343.047 338.400,342.774 337.950,342.636 337.400 C 342.498 336.850,342.208 336.400,341.992 336.400 C 341.777 336.400,341.600 336.130,341.600 335.800 C 341.600 335.470,341.420 335.200,341.200 335.200 C 340.980 335.200,340.800 334.930,340.800 334.600 C 340.800 334.270,340.620 334.000,340.400 334.000 C 340.180 334.000,340.000 333.798,340.000 333.552 C 340.000 333.305,338.560 331.044,336.800 328.527 C 335.040 326.010,333.600 323.782,333.600 323.575 C 333.600 323.369,333.420 323.200,333.200 323.200 C 332.980 323.200,332.800 322.945,332.800 322.633 C 332.800 322.322,332.594 321.998,332.342 321.914 C 331.863 321.754,332.540 318.990,333.122 318.726 C 333.563 318.526,335.200 316.076,335.200 315.616 C 335.200 315.387,335.391 315.200,335.624 315.200 C 335.857 315.200,335.945 315.035,335.821 314.834 C 335.697 314.633,335.731 314.408,335.898 314.334 C 336.355 314.131,338.000 311.691,338.000 311.216 C 338.000 310.987,338.191 310.800,338.424 310.800 C 338.657 310.800,338.736 310.620,338.600 310.400 C 338.464 310.180,338.543 310.000,338.776 310.000 C 339.009 310.000,339.200 309.764,339.200 309.475 C 339.200 309.187,339.560 308.564,340.000 308.092 C 340.440 307.620,340.800 307.046,340.800 306.817 C 340.800 306.588,340.968 306.400,341.173 306.400 C 341.378 306.400,341.674 305.995,341.830 305.500 C 341.986 305.005,342.628 303.974,343.257 303.209 C 343.885 302.444,344.400 301.679,344.400 301.509 C 344.400 301.059,336.709 301.142,336.000 301.600 C 335.670 301.813,335.551 301.991,335.735 301.994 C 335.919 301.997,335.514 302.755,334.835 303.679 C 334.156 304.602,333.600 305.592,333.600 305.879 C 333.600 306.165,333.420 306.400,333.200 306.400 C 332.980 306.400,332.831 306.535,332.870 306.700 C 332.974 307.149,331.916 309.200,331.579 309.200 C 331.418 309.200,331.174 309.650,331.036 310.200 C 330.898 310.750,330.598 311.200,330.369 311.200 C 330.140 311.200,330.031 311.335,330.127 311.500 C 330.222 311.665,329.817 312.568,329.226 313.508 L 328.151 315.215 325.376 311.108 C 323.849 308.848,322.465 306.940,322.300 306.867 C 322.135 306.793,322.000 306.478,322.000 306.167 C 322.000 305.855,321.820 305.600,321.600 305.600 C 321.380 305.600,321.200 305.330,321.200 305.000 C 321.200 304.670,321.040 304.400,320.843 304.400 C 320.647 304.400,320.374 303.950,320.236 303.400 C 320.098 302.850,319.808 302.400,319.592 302.400 C 319.377 302.400,319.200 302.130,319.200 301.800 C 319.200 301.299,318.425 301.205,314.500 301.232 C 311.915 301.249,310.026 301.354,310.302 301.466 M251.800 307.347 C 253.529 307.646,255.714 308.848,257.318 310.383 C 258.243 311.268,259.135 311.993,259.300 311.996 C 259.465 311.998,259.600 312.270,259.600 312.600 C 259.600 312.930,259.780 313.200,260.000 313.200 C 260.220 313.200,260.400 313.470,260.400 313.800 C 260.400 314.130,260.591 314.400,260.824 314.400 C 261.057 314.400,261.136 314.580,261.000 314.800 C 260.864 315.020,260.915 315.200,261.113 315.200 C 262.814 315.200,262.814 326.816,261.113 327.534 C 260.938 327.608,260.897 327.833,261.021 328.034 C 261.145 328.235,261.057 328.400,260.824 328.400 C 260.591 328.400,260.400 328.670,260.400 329.000 C 260.400 329.330,260.220 329.600,260.000 329.600 C 259.780 329.600,259.600 329.766,259.600 329.968 C 259.600 330.550,256.501 333.527,255.189 334.206 C 254.535 334.544,254.000 334.721,254.000 334.600 C 254.000 334.479,253.501 334.638,252.890 334.953 C 251.489 335.678,246.271 335.696,244.614 334.982 C 243.946 334.694,243.130 334.356,242.800 334.232 C 241.242 333.643,237.385 330.014,236.988 328.762 C 236.855 328.343,236.548 328.000,236.306 328.000 C 236.065 328.000,235.980 327.886,236.119 327.747 C 236.258 327.608,236.162 327.113,235.905 326.647 C 234.329 323.786,234.960 314.680,236.777 314.074 C 237.010 313.997,237.200 313.678,237.200 313.367 C 237.200 313.055,237.368 312.800,237.573 312.800 C 237.778 312.800,238.050 312.474,238.176 312.075 C 238.414 311.327,241.966 308.567,242.500 308.716 C 242.665 308.762,242.800 308.590,242.800 308.333 C 242.800 308.077,242.914 307.980,243.053 308.119 C 243.192 308.258,243.657 308.183,244.088 307.953 C 244.518 307.723,245.345 307.448,245.926 307.343 C 246.507 307.238,247.076 307.055,247.191 306.937 C 247.375 306.749,249.376 306.927,251.800 307.347 M125.773 307.807 C 130.799 309.332,132.094 315.602,128.136 319.246 C 126.569 320.688,125.165 321.071,121.100 321.167 L 117.600 321.249 117.600 314.225 L 117.600 307.200 120.700 307.204 C 122.405 307.207,124.688 307.478,125.773 307.807 M291.000 307.725 C 291.440 307.842,291.908 307.953,292.041 307.969 C 293.723 308.183,296.126 312.804,295.831 315.256 C 295.333 319.384,292.889 320.989,286.860 321.147 L 282.800 321.253 282.800 314.493 C 282.800 310.775,282.935 307.598,283.100 307.432 C 283.411 307.118,289.593 307.348,291.000 307.725 M81.443 314.537 C 81.594 315.012,82.321 316.191,83.058 317.158 C 83.796 318.124,84.402 319.114,84.404 319.358 C 84.406 319.601,85.036 320.590,85.804 321.556 C 86.572 322.522,87.200 323.484,87.200 323.695 C 87.200 323.905,87.572 324.599,88.027 325.238 L 88.854 326.400 80.458 326.400 L 72.061 326.400 72.699 325.100 C 73.050 324.385,73.441 323.710,73.569 323.600 C 74.111 323.131,75.600 320.798,75.600 320.416 C 75.600 320.187,75.791 320.000,76.024 320.000 C 76.257 320.000,76.345 319.835,76.221 319.634 C 76.097 319.433,76.131 319.208,76.298 319.134 C 76.755 318.931,78.400 316.491,78.400 316.016 C 78.400 315.787,78.591 315.600,78.824 315.600 C 79.057 315.600,79.136 315.420,79.000 315.200 C 78.864 314.980,78.931 314.800,79.149 314.800 C 79.368 314.800,79.657 314.449,79.794 314.020 C 80.101 313.052,81.068 313.355,81.443 314.537 M63.525 352.400 C 63.317 352.950,62.811 353.760,62.400 354.200 C 61.989 354.640,61.483 355.450,61.275 356.000 L 60.896 357.000 190.648 357.000 L 320.400 357.000 320.400 354.301 L 320.400 351.602 192.152 351.501 L 63.904 351.400 63.525 352.400 M323.200 354.200 L 323.200 356.800 325.000 356.800 C 325.990 356.800,326.800 356.620,326.800 356.400 C 326.800 356.180,326.260 356.000,325.600 356.000 C 324.412 356.000,324.400 355.978,324.400 353.800 C 324.400 352.111,324.261 351.600,323.800 351.600 C 323.328 351.600,323.200 352.156,323.200 354.200 M326.800 352.000 C 326.800 352.220,327.070 352.400,327.400 352.400 C 327.861 352.400,328.000 352.911,328.000 354.600 C 328.000 355.810,328.180 356.800,328.400 356.800 C 328.620 356.800,328.800 355.883,328.800 354.763 C 328.800 353.062,328.932 352.691,329.600 352.516 C 331.034 352.141,330.443 351.600,328.600 351.600 C 327.610 351.600,326.800 351.780,326.800 352.000 M331.200 354.200 L 331.200 356.800 332.951 356.800 C 334.020 356.800,334.896 356.566,335.200 356.200 C 335.474 355.870,335.577 355.600,335.429 355.600 C 335.281 355.600,335.329 355.299,335.535 354.930 C 336.485 353.233,334.915 351.618,332.300 351.605 C 331.212 351.600,331.200 351.629,331.200 354.200 M334.350 353.033 C 334.738 353.378,334.439 355.330,333.950 355.645 C 332.605 356.511,331.463 354.776,332.168 352.939 C 332.367 352.419,333.727 352.478,334.350 353.033 " stroke="none" fill="#7cfc04" fill-rule="evenodd"></path><path id="path1" d="M273.491 36.299 L 280.781 36.418 280.901 43.309 L 281.020 50.200 281.110 43.100 L 281.200 36.000 273.700 36.090 L 266.200 36.181 273.491 36.299 M198.900 36.676 C 199.285 36.776,199.915 36.776,200.300 36.676 C 200.685 36.575,200.370 36.493,199.600 36.493 C 198.830 36.493,198.515 36.575,198.900 36.676 M249.491 49.499 L 256.781 49.618 256.901 56.509 L 257.020 63.400 257.110 56.300 L 257.200 49.200 249.700 49.290 L 242.200 49.381 249.491 49.499 M206.182 50.502 C 206.076 50.779,206.039 57.304,206.100 65.002 L 206.211 79.000 206.305 64.712 L 206.400 50.425 211.300 50.299 L 216.200 50.173 211.287 50.086 C 207.649 50.022,206.325 50.130,206.182 50.502 M211.694 67.100 L 211.787 78.600 211.900 67.300 L 212.012 56.000 223.200 56.000 L 234.388 56.000 234.500 67.300 L 234.613 78.600 234.706 67.100 L 234.800 55.600 223.200 55.600 L 211.600 55.600 211.694 67.100 M262.176 76.800 C 262.176 83.070,262.232 85.635,262.299 82.500 C 262.367 79.365,262.367 74.235,262.299 71.100 C 262.232 67.965,262.176 70.530,262.176 76.800 M173.793 95.700 L 173.800 112.600 187.000 112.608 L 200.200 112.616 187.104 112.503 L 174.009 112.389 173.898 95.595 L 173.787 78.800 173.793 95.700 M179.390 95.900 L 179.400 107.000 190.800 107.010 L 202.200 107.019 190.906 106.903 L 179.613 106.788 179.497 95.794 L 179.381 84.800 179.390 95.900 M223.294 97.100 L 223.387 108.600 223.500 97.306 L 223.612 86.012 234.906 85.900 L 246.200 85.787 234.700 85.694 L 223.200 85.600 223.294 97.100 M256.890 102.100 L 256.800 109.200 264.300 109.110 L 271.800 109.019 264.509 108.901 L 257.219 108.782 257.099 101.891 L 256.980 95.000 256.890 102.100 M239.680 114.698 C 241.594 114.771,244.834 114.771,246.880 114.698 C 248.926 114.626,247.360 114.566,243.400 114.565 C 239.440 114.565,237.766 114.624,239.680 114.698 M211.500 118.298 C 213.535 118.371,216.865 118.371,218.900 118.298 C 220.935 118.225,219.270 118.166,215.200 118.166 C 211.130 118.166,209.465 118.225,211.500 118.298 M280.594 119.497 L 291.987 119.612 292.103 130.506 L 292.219 141.400 292.209 130.400 L 292.200 119.400 280.700 119.391 L 269.200 119.381 280.594 119.497 M303.280 136.698 C 305.194 136.771,308.434 136.771,310.480 136.698 C 312.526 136.626,310.960 136.566,307.000 136.565 C 303.040 136.565,301.366 136.624,303.280 136.698 M253.693 148.894 L 253.600 159.988 242.100 160.100 L 230.600 160.213 242.113 160.306 C 251.095 160.379,253.668 160.289,253.819 159.894 C 253.926 159.616,253.962 154.531,253.900 148.594 L 253.786 137.800 253.693 148.894 M194.713 143.895 C 195.876 143.976,197.676 143.976,198.713 143.893 C 199.751 143.811,198.800 143.745,196.600 143.746 C 194.400 143.747,193.551 143.814,194.713 143.895 M198.177 149.715 C 198.069 149.998,198.034 153.283,198.100 157.015 L 198.221 163.800 198.310 156.709 L 198.400 149.618 205.500 149.499 L 212.600 149.380 205.487 149.290 C 199.992 149.220,198.330 149.317,198.177 149.715 M278.400 162.600 L 278.400 169.600 271.409 169.600 L 264.419 169.600 264.299 162.700 L 264.180 155.800 264.090 162.900 L 264.000 170.000 271.400 170.000 L 278.800 170.000 278.800 162.800 C 278.800 158.840,278.710 155.600,278.600 155.600 C 278.490 155.600,278.400 158.750,278.400 162.600 M294.924 161.099 C 298.183 161.167,303.403 161.166,306.524 161.099 C 309.646 161.031,306.980 160.976,300.600 160.977 C 294.220 160.977,291.666 161.032,294.924 161.099 M258.573 172.299 L 258.600 175.400 271.100 175.409 L 283.600 175.417 271.217 175.303 L 258.833 175.189 258.690 172.193 L 258.546 169.197 258.573 172.299 M160.100 185.887 C 160.705 185.978,161.695 185.978,162.300 185.887 C 162.905 185.795,162.410 185.720,161.200 185.720 C 159.990 185.720,159.495 185.795,160.100 185.887 M238.100 185.887 C 238.705 185.978,239.695 185.978,240.300 185.887 C 240.905 185.795,240.410 185.720,239.200 185.720 C 237.990 185.720,237.495 185.795,238.100 185.887 M199.505 215.883 C 200.002 215.979,200.722 215.975,201.105 215.875 C 201.487 215.775,201.080 215.696,200.200 215.701 C 199.320 215.705,199.007 215.787,199.505 215.883 M280.093 222.400 C 280.093 223.170,280.175 223.485,280.276 223.100 C 280.376 222.715,280.376 222.085,280.276 221.700 C 280.175 221.315,280.093 221.630,280.093 222.400 M64.909 225.200 C 64.909 226.190,64.987 226.595,65.082 226.100 C 65.178 225.605,65.178 224.795,65.082 224.300 C 64.987 223.805,64.909 224.210,64.909 225.200 M120.101 227.800 C 120.105 228.680,120.187 228.993,120.283 228.495 C 120.379 227.998,120.375 227.278,120.275 226.895 C 120.175 226.513,120.096 226.920,120.101 227.800 M199.305 227.887 C 199.914 227.979,200.814 227.977,201.305 227.882 C 201.797 227.787,201.300 227.711,200.200 227.714 C 199.100 227.717,198.697 227.795,199.305 227.887 M253.775 230.900 L 252.600 232.200 253.900 231.025 C 254.615 230.379,255.200 229.794,255.200 229.725 C 255.200 229.416,254.870 229.688,253.775 230.900 M213.301 273.400 C 213.305 274.280,213.387 274.593,213.483 274.095 C 213.579 273.598,213.575 272.878,213.475 272.495 C 213.375 272.113,213.296 272.520,213.301 273.400 M114.520 301.098 C 116.455 301.172,119.515 301.171,121.320 301.097 C 123.124 301.023,121.540 300.963,117.800 300.964 C 114.060 300.964,112.584 301.025,114.520 301.098 M157.300 301.097 L 170.800 301.211 170.800 304.198 L 170.800 307.186 160.700 307.293 L 150.600 307.400 150.581 312.800 L 150.562 318.200 150.693 312.900 L 150.823 307.600 161.028 307.600 L 171.232 307.600 171.116 304.300 L 171.000 301.000 157.400 300.992 L 143.800 300.984 157.300 301.097 M276.183 301.300 C 276.078 301.575,276.040 310.800,276.100 321.800 L 276.208 341.800 276.304 321.510 L 276.400 301.219 283.100 301.099 L 289.800 300.979 283.087 300.890 C 278.019 300.822,276.328 300.922,276.183 301.300 M312.100 301.096 C 313.365 301.175,315.435 301.175,316.700 301.096 C 317.965 301.016,316.930 300.951,314.400 300.951 C 311.870 300.951,310.835 301.016,312.100 301.096 M336.260 301.100 C 336.158 301.265,337.362 301.351,338.937 301.291 C 344.082 301.094,344.676 300.936,340.524 300.867 C 338.282 300.830,336.363 300.935,336.260 301.100 M247.905 307.083 C 248.402 307.179,249.122 307.175,249.505 307.075 C 249.887 306.975,249.480 306.896,248.600 306.901 C 247.720 306.905,247.407 306.987,247.905 307.083 M119.312 307.495 C 120.364 307.577,121.984 307.576,122.912 307.492 C 123.840 307.408,122.980 307.341,121.000 307.342 C 119.020 307.343,118.260 307.412,119.312 307.495 M282.977 307.715 C 282.868 307.999,282.834 311.194,282.900 314.815 L 283.021 321.400 283.111 314.516 L 283.200 307.632 286.500 307.498 L 289.800 307.363 286.487 307.281 C 284.093 307.223,283.120 307.343,282.977 307.715 M269.314 321.400 C 269.317 322.500,269.395 322.903,269.487 322.295 C 269.579 321.686,269.577 320.786,269.482 320.295 C 269.387 319.803,269.311 320.300,269.314 321.400 M150.558 329.800 C 150.558 332.880,150.621 334.087,150.697 332.482 C 150.773 330.878,150.773 328.358,150.696 326.882 C 150.619 325.407,150.557 326.720,150.558 329.800 M282.965 334.600 C 282.966 338.560,283.026 340.126,283.098 338.080 C 283.171 336.034,283.171 332.794,283.098 330.880 C 283.024 328.966,282.965 330.640,282.965 334.600 M171.737 338.600 C 171.739 340.360,171.809 341.030,171.893 340.089 C 171.978 339.149,171.977 337.709,171.891 336.889 C 171.805 336.070,171.736 336.840,171.737 338.600 M128.300 351.500 C 163.555 351.556,221.245 351.556,256.500 351.500 C 291.755 351.444,262.910 351.398,192.400 351.398 C 121.890 351.398,93.045 351.444,128.300 351.500 M328.962 352.954 C 328.845 353.259,328.819 354.294,328.905 355.254 L 329.060 357.000 329.130 354.929 C 329.184 353.330,329.360 352.817,329.900 352.676 C 330.556 352.504,330.555 352.490,329.887 352.446 C 329.496 352.421,329.079 352.649,328.962 352.954 M332.158 352.966 C 331.769 353.978,332.175 355.791,332.800 355.835 C 333.147 355.859,333.189 355.806,332.900 355.709 C 332.625 355.617,332.400 354.940,332.400 354.204 C 332.400 353.468,332.625 352.776,332.900 352.665 C 333.292 352.507,333.289 352.456,332.887 352.432 C 332.606 352.414,332.277 352.655,332.158 352.966 M324.900 355.876 C 325.285 355.976,325.915 355.976,326.300 355.876 C 326.685 355.775,326.370 355.693,325.600 355.693 C 324.830 355.693,324.515 355.775,324.900 355.876 M61.141 356.901 C 61.306 357.066,119.662 357.156,190.821 357.101 L 320.200 357.000 190.520 356.800 C 119.196 356.690,60.975 356.735,61.141 356.901 M39.999 364.500 C 40.000 364.665,41.755 364.771,43.900 364.736 C 47.913 364.670,47.445 364.504,42.699 364.310 C 41.214 364.250,39.999 364.335,39.999 364.500 M353.900 364.695 C 355.055 364.776,356.945 364.776,358.100 364.695 C 359.255 364.614,358.310 364.548,356.000 364.548 C 353.690 364.548,352.745 364.614,353.900 364.695 " stroke="none" fill="#80fc04" fill-rule="evenodd"></path><path id="path2" d="M273.491 36.299 L 280.781 36.418 280.901 43.309 L 281.020 50.200 281.110 43.100 L 281.200 36.000 273.700 36.090 L 266.200 36.181 273.491 36.299 M198.900 36.676 C 199.285 36.776,199.915 36.776,200.300 36.676 C 200.685 36.575,200.370 36.493,199.600 36.493 C 198.830 36.493,198.515 36.575,198.900 36.676 M249.491 49.499 L 256.781 49.618 256.901 56.509 L 257.020 63.400 257.110 56.300 L 257.200 49.200 249.700 49.290 L 242.200 49.381 249.491 49.499 M206.182 50.502 C 206.076 50.779,206.039 57.304,206.100 65.002 L 206.211 79.000 206.305 64.712 L 206.400 50.425 211.300 50.299 L 216.200 50.173 211.287 50.086 C 207.649 50.022,206.325 50.130,206.182 50.502 M211.694 67.100 L 211.787 78.600 211.900 67.300 L 212.012 56.000 223.200 56.000 L 234.388 56.000 234.500 67.300 L 234.613 78.600 234.706 67.100 L 234.800 55.600 223.200 55.600 L 211.600 55.600 211.694 67.100 M262.176 76.800 C 262.176 83.070,262.232 85.635,262.299 82.500 C 262.367 79.365,262.367 74.235,262.299 71.100 C 262.232 67.965,262.176 70.530,262.176 76.800 M173.793 95.700 L 173.800 112.600 187.000 112.608 L 200.200 112.616 187.104 112.503 L 174.009 112.389 173.898 95.595 L 173.787 78.800 173.793 95.700 M179.390 95.900 L 179.400 107.000 190.800 107.010 L 202.200 107.019 190.906 106.903 L 179.613 106.788 179.497 95.794 L 179.381 84.800 179.390 95.900 M223.294 97.100 L 223.387 108.600 223.500 97.306 L 223.612 86.012 234.906 85.900 L 246.200 85.787 234.700 85.694 L 223.200 85.600 223.294 97.100 M256.890 102.100 L 256.800 109.200 264.300 109.110 L 271.800 109.019 264.509 108.901 L 257.219 108.782 257.099 101.891 L 256.980 95.000 256.890 102.100 M239.680 114.698 C 241.594 114.771,244.834 114.771,246.880 114.698 C 248.926 114.626,247.360 114.566,243.400 114.565 C 239.440 114.565,237.766 114.624,239.680 114.698 M211.500 118.298 C 213.535 118.371,216.865 118.371,218.900 118.298 C 220.935 118.225,219.270 118.166,215.200 118.166 C 211.130 118.166,209.465 118.225,211.500 118.298 M280.594 119.497 L 291.987 119.612 292.103 130.506 L 292.219 141.400 292.209 130.400 L 292.200 119.400 280.700 119.391 L 269.200 119.381 280.594 119.497 M303.280 136.698 C 305.194 136.771,308.434 136.771,310.480 136.698 C 312.526 136.626,310.960 136.566,307.000 136.565 C 303.040 136.565,301.366 136.624,303.280 136.698 M253.693 148.894 L 253.600 159.988 242.100 160.100 L 230.600 160.213 242.113 160.306 C 251.095 160.379,253.668 160.289,253.819 159.894 C 253.926 159.616,253.962 154.531,253.900 148.594 L 253.786 137.800 253.693 148.894 M194.713 143.895 C 195.876 143.976,197.676 143.976,198.713 143.893 C 199.751 143.811,198.800 143.745,196.600 143.746 C 194.400 143.747,193.551 143.814,194.713 143.895 M198.177 149.715 C 198.069 149.998,198.034 153.283,198.100 157.015 L 198.221 163.800 198.310 156.709 L 198.400 149.618 205.500 149.499 L 212.600 149.380 205.487 149.290 C 199.992 149.220,198.330 149.317,198.177 149.715 M278.400 162.600 L 278.400 169.600 271.409 169.600 L 264.419 169.600 264.299 162.700 L 264.180 155.800 264.090 162.900 L 264.000 170.000 271.400 170.000 L 278.800 170.000 278.800 162.800 C 278.800 158.840,278.710 155.600,278.600 155.600 C 278.490 155.600,278.400 158.750,278.400 162.600 M294.924 161.099 C 298.183 161.167,303.403 161.166,306.524 161.099 C 309.646 161.031,306.980 160.976,300.600 160.977 C 294.220 160.977,291.666 161.032,294.924 161.099 M258.573 172.299 L 258.600 175.400 271.100 175.409 L 283.600 175.417 271.217 175.303 L 258.833 175.189 258.690 172.193 L 258.546 169.197 258.573 172.299 M160.100 185.887 C 160.705 185.978,161.695 185.978,162.300 185.887 C 162.905 185.795,162.410 185.720,161.200 185.720 C 159.990 185.720,159.495 185.795,160.100 185.887 M238.100 185.887 C 238.705 185.978,239.695 185.978,240.300 185.887 C 240.905 185.795,240.410 185.720,239.200 185.720 C 237.990 185.720,237.495 185.795,238.100 185.887 M199.505 215.883 C 200.002 215.979,200.722 215.975,201.105 215.875 C 201.487 215.775,201.080 215.696,200.200 215.701 C 199.320 215.705,199.007 215.787,199.505 215.883 M280.093 222.400 C 280.093 223.170,280.175 223.485,280.276 223.100 C 280.376 222.715,280.376 222.085,280.276 221.700 C 280.175 221.315,280.093 221.630,280.093 222.400 M64.909 225.200 C 64.909 226.190,64.987 226.595,65.082 226.100 C 65.178 225.605,65.178 224.795,65.082 224.300 C 64.987 223.805,64.909 224.210,64.909 225.200 M120.101 227.800 C 120.105 228.680,120.187 228.993,120.283 228.495 C 120.379 227.998,120.375 227.278,120.275 226.895 C 120.175 226.513,120.096 226.920,120.101 227.800 M199.305 227.887 C 199.914 227.979,200.814 227.977,201.305 227.882 C 201.797 227.787,201.300 227.711,200.200 227.714 C 199.100 227.717,198.697 227.795,199.305 227.887 M253.775 230.900 L 252.600 232.200 253.900 231.025 C 254.615 230.379,255.200 229.794,255.200 229.725 C 255.200 229.416,254.870 229.688,253.775 230.900 M213.301 273.400 C 213.305 274.280,213.387 274.593,213.483 274.095 C 213.579 273.598,213.575 272.878,213.475 272.495 C 213.375 272.113,213.296 272.520,213.301 273.400 M114.520 301.098 C 116.455 301.172,119.515 301.171,121.320 301.097 C 123.124 301.023,121.540 300.963,117.800 300.964 C 114.060 300.964,112.584 301.025,114.520 301.098 M157.300 301.097 L 170.800 301.211 170.800 304.198 L 170.800 307.186 160.700 307.293 L 150.600 307.400 150.581 312.800 L 150.562 318.200 150.693 312.900 L 150.823 307.600 161.028 307.600 L 171.232 307.600 171.116 304.300 L 171.000 301.000 157.400 300.992 L 143.800 300.984 157.300 301.097 M276.183 301.300 C 276.078 301.575,276.040 310.800,276.100 321.800 L 276.208 341.800 276.304 321.510 L 276.400 301.219 283.100 301.099 L 289.800 300.979 283.087 300.890 C 278.019 300.822,276.328 300.922,276.183 301.300 M312.100 301.096 C 313.365 301.175,315.435 301.175,316.700 301.096 C 317.965 301.016,316.930 300.951,314.400 300.951 C 311.870 300.951,310.835 301.016,312.100 301.096 M336.260 301.100 C 336.158 301.265,337.362 301.351,338.937 301.291 C 344.082 301.094,344.676 300.936,340.524 300.867 C 338.282 300.830,336.363 300.935,336.260 301.100 M247.905 307.083 C 248.402 307.179,249.122 307.175,249.505 307.075 C 249.887 306.975,249.480 306.896,248.600 306.901 C 247.720 306.905,247.407 306.987,247.905 307.083 M119.312 307.495 C 120.364 307.577,121.984 307.576,122.912 307.492 C 123.840 307.408,122.980 307.341,121.000 307.342 C 119.020 307.343,118.260 307.412,119.312 307.495 M282.977 307.715 C 282.868 307.999,282.834 311.194,282.900 314.815 L 283.021 321.400 283.111 314.516 L 283.200 307.632 286.500 307.498 L 289.800 307.363 286.487 307.281 C 284.093 307.223,283.120 307.343,282.977 307.715 M269.314 321.400 C 269.317 322.500,269.395 322.903,269.487 322.295 C 269.579 321.686,269.577 320.786,269.482 320.295 C 269.387 319.803,269.311 320.300,269.314 321.400 M150.558 329.800 C 150.558 332.880,150.621 334.087,150.697 332.482 C 150.773 330.878,150.773 328.358,150.696 326.882 C 150.619 325.407,150.557 326.720,150.558 329.800 M282.965 334.600 C 282.966 338.560,283.026 340.126,283.098 338.080 C 283.171 336.034,283.171 332.794,283.098 330.880 C 283.024 328.966,282.965 330.640,282.965 334.600 M171.737 338.600 C 171.739 340.360,171.809 341.030,171.893 340.089 C 171.978 339.149,171.977 337.709,171.891 336.889 C 171.805 336.070,171.736 336.840,171.737 338.600 M128.300 351.500 C 163.555 351.556,221.245 351.556,256.500 351.500 C 291.755 351.444,262.910 351.398,192.400 351.398 C 121.890 351.398,93.045 351.444,128.300 351.500 M328.962 352.954 C 328.845 353.259,328.819 354.294,328.905 355.254 L 329.060 357.000 329.130 354.929 C 329.184 353.330,329.360 352.817,329.900 352.676 C 330.556 352.504,330.555 352.490,329.887 352.446 C 329.496 352.421,329.079 352.649,328.962 352.954 M332.158 352.966 C 331.769 353.978,332.175 355.791,332.800 355.835 C 333.147 355.859,333.189 355.806,332.900 355.709 C 332.625 355.617,332.400 354.940,332.400 354.204 C 332.400 353.468,332.625 352.776,332.900 352.665 C 333.292 352.507,333.289 352.456,332.887 352.432 C 332.606 352.414,332.277 352.655,332.158 352.966 M324.900 355.876 C 325.285 355.976,325.915 355.976,326.300 355.876 C 326.685 355.775,326.370 355.693,325.600 355.693 C 324.830 355.693,324.515 355.775,324.900 355.876 M61.141 356.901 C 61.306 357.066,119.662 357.156,190.821 357.101 L 320.200 357.000 190.520 356.800 C 119.196 356.690,60.975 356.735,61.141 356.901 M39.999 364.500 C 40.000 364.665,41.755 364.771,43.900 364.736 C 47.913 364.670,47.445 364.504,42.699 364.310 C 41.214 364.250,39.999 364.335,39.999 364.500 M353.900 364.695 C 355.055 364.776,356.945 364.776,358.100 364.695 C 359.255 364.614,358.310 364.548,356.000 364.548 C 353.690 364.548,352.745 364.614,353.900 364.695 " stroke="none" fill="#80fc04" fill-rule="evenodd"></path><path id="path3" d="M273.491 36.299 L 280.781 36.418 280.901 43.309 L 281.020 50.200 281.110 43.100 L 281.200 36.000 273.700 36.090 L 266.200 36.181 273.491 36.299 M198.900 36.676 C 199.285 36.776,199.915 36.776,200.300 36.676 C 200.685 36.575,200.370 36.493,199.600 36.493 C 198.830 36.493,198.515 36.575,198.900 36.676 M249.491 49.499 L 256.781 49.618 256.901 56.509 L 257.020 63.400 257.110 56.300 L 257.200 49.200 249.700 49.290 L 242.200 49.381 249.491 49.499 M206.182 50.502 C 206.076 50.779,206.039 57.304,206.100 65.002 L 206.211 79.000 206.305 64.712 L 206.400 50.425 211.300 50.299 L 216.200 50.173 211.287 50.086 C 207.649 50.022,206.325 50.130,206.182 50.502 M211.694 67.100 L 211.787 78.600 211.900 67.300 L 212.012 56.000 223.200 56.000 L 234.388 56.000 234.500 67.300 L 234.613 78.600 234.706 67.100 L 234.800 55.600 223.200 55.600 L 211.600 55.600 211.694 67.100 M262.176 76.800 C 262.176 83.070,262.232 85.635,262.299 82.500 C 262.367 79.365,262.367 74.235,262.299 71.100 C 262.232 67.965,262.176 70.530,262.176 76.800 M173.793 95.700 L 173.800 112.600 187.000 112.608 L 200.200 112.616 187.104 112.503 L 174.009 112.389 173.898 95.595 L 173.787 78.800 173.793 95.700 M179.390 95.900 L 179.400 107.000 190.800 107.010 L 202.200 107.019 190.906 106.903 L 179.613 106.788 179.497 95.794 L 179.381 84.800 179.390 95.900 M223.294 97.100 L 223.387 108.600 223.500 97.306 L 223.612 86.012 234.906 85.900 L 246.200 85.787 234.700 85.694 L 223.200 85.600 223.294 97.100 M256.890 102.100 L 256.800 109.200 264.300 109.110 L 271.800 109.019 264.509 108.901 L 257.219 108.782 257.099 101.891 L 256.980 95.000 256.890 102.100 M239.680 114.698 C 241.594 114.771,244.834 114.771,246.880 114.698 C 248.926 114.626,247.360 114.566,243.400 114.565 C 239.440 114.565,237.766 114.624,239.680 114.698 M211.500 118.298 C 213.535 118.371,216.865 118.371,218.900 118.298 C 220.935 118.225,219.270 118.166,215.200 118.166 C 211.130 118.166,209.465 118.225,211.500 118.298 M280.594 119.497 L 291.987 119.612 292.103 130.506 L 292.219 141.400 292.209 130.400 L 292.200 119.400 280.700 119.391 L 269.200 119.381 280.594 119.497 M303.280 136.698 C 305.194 136.771,308.434 136.771,310.480 136.698 C 312.526 136.626,310.960 136.566,307.000 136.565 C 303.040 136.565,301.366 136.624,303.280 136.698 M253.693 148.894 L 253.600 159.988 242.100 160.100 L 230.600 160.213 242.113 160.306 C 251.095 160.379,253.668 160.289,253.819 159.894 C 253.926 159.616,253.962 154.531,253.900 148.594 L 253.786 137.800 253.693 148.894 M194.713 143.895 C 195.876 143.976,197.676 143.976,198.713 143.893 C 199.751 143.811,198.800 143.745,196.600 143.746 C 194.400 143.747,193.551 143.814,194.713 143.895 M198.177 149.715 C 198.069 149.998,198.034 153.283,198.100 157.015 L 198.221 163.800 198.310 156.709 L 198.400 149.618 205.500 149.499 L 212.600 149.380 205.487 149.290 C 199.992 149.220,198.330 149.317,198.177 149.715 M278.400 162.600 L 278.400 169.600 271.409 169.600 L 264.419 169.600 264.299 162.700 L 264.180 155.800 264.090 162.900 L 264.000 170.000 271.400 170.000 L 278.800 170.000 278.800 162.800 C 278.800 158.840,278.710 155.600,278.600 155.600 C 278.490 155.600,278.400 158.750,278.400 162.600 M294.924 161.099 C 298.183 161.167,303.403 161.166,306.524 161.099 C 309.646 161.031,306.980 160.976,300.600 160.977 C 294.220 160.977,291.666 161.032,294.924 161.099 M258.573 172.299 L 258.600 175.400 271.100 175.409 L 283.600 175.417 271.217 175.303 L 258.833 175.189 258.690 172.193 L 258.546 169.197 258.573 172.299 M160.100 185.887 C 160.705 185.978,161.695 185.978,162.300 185.887 C 162.905 185.795,162.410 185.720,161.200 185.720 C 159.990 185.720,159.495 185.795,160.100 185.887 M238.100 185.887 C 238.705 185.978,239.695 185.978,240.300 185.887 C 240.905 185.795,240.410 185.720,239.200 185.720 C 237.990 185.720,237.495 185.795,238.100 185.887 M199.505 215.883 C 200.002 215.979,200.722 215.975,201.105 215.875 C 201.487 215.775,201.080 215.696,200.200 215.701 C 199.320 215.705,199.007 215.787,199.505 215.883 M280.093 222.400 C 280.093 223.170,280.175 223.485,280.276 223.100 C 280.376 222.715,280.376 222.085,280.276 221.700 C 280.175 221.315,280.093 221.630,280.093 222.400 M64.909 225.200 C 64.909 226.190,64.987 226.595,65.082 226.100 C 65.178 225.605,65.178 224.795,65.082 224.300 C 64.987 223.805,64.909 224.210,64.909 225.200 M120.101 227.800 C 120.105 228.680,120.187 228.993,120.283 228.495 C 120.379 227.998,120.375 227.278,120.275 226.895 C 120.175 226.513,120.096 226.920,120.101 227.800 M199.305 227.887 C 199.914 227.979,200.814 227.977,201.305 227.882 C 201.797 227.787,201.300 227.711,200.200 227.714 C 199.100 227.717,198.697 227.795,199.305 227.887 M253.775 230.900 L 252.600 232.200 253.900 231.025 C 254.615 230.379,255.200 229.794,255.200 229.725 C 255.200 229.416,254.870 229.688,253.775 230.900 M213.301 273.400 C 213.305 274.280,213.387 274.593,213.483 274.095 C 213.579 273.598,213.575 272.878,213.475 272.495 C 213.375 272.113,213.296 272.520,213.301 273.400 M114.520 301.098 C 116.455 301.172,119.515 301.171,121.320 301.097 C 123.124 301.023,121.540 300.963,117.800 300.964 C 114.060 300.964,112.584 301.025,114.520 301.098 M157.300 301.097 L 170.800 301.211 170.800 304.198 L 170.800 307.186 160.700 307.293 L 150.600 307.400 150.581 312.800 L 150.562 318.200 150.693 312.900 L 150.823 307.600 161.028 307.600 L 171.232 307.600 171.116 304.300 L 171.000 301.000 157.400 300.992 L 143.800 300.984 157.300 301.097 M276.183 301.300 C 276.078 301.575,276.040 310.800,276.100 321.800 L 276.208 341.800 276.304 321.510 L 276.400 301.219 283.100 301.099 L 289.800 300.979 283.087 300.890 C 278.019 300.822,276.328 300.922,276.183 301.300 M312.100 301.096 C 313.365 301.175,315.435 301.175,316.700 301.096 C 317.965 301.016,316.930 300.951,314.400 300.951 C 311.870 300.951,310.835 301.016,312.100 301.096 M336.260 301.100 C 336.158 301.265,337.362 301.351,338.937 301.291 C 344.082 301.094,344.676 300.936,340.524 300.867 C 338.282 300.830,336.363 300.935,336.260 301.100 M247.905 307.083 C 248.402 307.179,249.122 307.175,249.505 307.075 C 249.887 306.975,249.480 306.896,248.600 306.901 C 247.720 306.905,247.407 306.987,247.905 307.083 M119.312 307.495 C 120.364 307.577,121.984 307.576,122.912 307.492 C 123.840 307.408,122.980 307.341,121.000 307.342 C 119.020 307.343,118.260 307.412,119.312 307.495 M282.977 307.715 C 282.868 307.999,282.834 311.194,282.900 314.815 L 283.021 321.400 283.111 314.516 L 283.200 307.632 286.500 307.498 L 289.800 307.363 286.487 307.281 C 284.093 307.223,283.120 307.343,282.977 307.715 M269.314 321.400 C 269.317 322.500,269.395 322.903,269.487 322.295 C 269.579 321.686,269.577 320.786,269.482 320.295 C 269.387 319.803,269.311 320.300,269.314 321.400 M150.558 329.800 C 150.558 332.880,150.621 334.087,150.697 332.482 C 150.773 330.878,150.773 328.358,150.696 326.882 C 150.619 325.407,150.557 326.720,150.558 329.800 M282.965 334.600 C 282.966 338.560,283.026 340.126,283.098 338.080 C 283.171 336.034,283.171 332.794,283.098 330.880 C 283.024 328.966,282.965 330.640,282.965 334.600 M171.737 338.600 C 171.739 340.360,171.809 341.030,171.893 340.089 C 171.978 339.149,171.977 337.709,171.891 336.889 C 171.805 336.070,171.736 336.840,171.737 338.600 M128.300 351.500 C 163.555 351.556,221.245 351.556,256.500 351.500 C 291.755 351.444,262.910 351.398,192.400 351.398 C 121.890 351.398,93.045 351.444,128.300 351.500 M328.962 352.954 C 328.845 353.259,328.819 354.294,328.905 355.254 L 329.060 357.000 329.130 354.929 C 329.184 353.330,329.360 352.817,329.900 352.676 C 330.556 352.504,330.555 352.490,329.887 352.446 C 329.496 352.421,329.079 352.649,328.962 352.954 M332.158 352.966 C 331.769 353.978,332.175 355.791,332.800 355.835 C 333.147 355.859,333.189 355.806,332.900 355.709 C 332.625 355.617,332.400 354.940,332.400 354.204 C 332.400 353.468,332.625 352.776,332.900 352.665 C 333.292 352.507,333.289 352.456,332.887 352.432 C 332.606 352.414,332.277 352.655,332.158 352.966 M324.900 355.876 C 325.285 355.976,325.915 355.976,326.300 355.876 C 326.685 355.775,326.370 355.693,325.600 355.693 C 324.830 355.693,324.515 355.775,324.900 355.876 M61.141 356.901 C 61.306 357.066,119.662 357.156,190.821 357.101 L 320.200 357.000 190.520 356.800 C 119.196 356.690,60.975 356.735,61.141 356.901 M39.999 364.500 C 40.000 364.665,41.755 364.771,43.900 364.736 C 47.913 364.670,47.445 364.504,42.699 364.310 C 41.214 364.250,39.999 364.335,39.999 364.500 M353.900 364.695 C 355.055 364.776,356.945 364.776,358.100 364.695 C 359.255 364.614,358.310 364.548,356.000 364.548 C 353.690 364.548,352.745 364.614,353.900 364.695 " stroke="none" fill="#80fc04" fill-rule="evenodd"></path><path id="path4" d="M273.491 36.299 L 280.781 36.418 280.901 43.309 L 281.020 50.200 281.110 43.100 L 281.200 36.000 273.700 36.090 L 266.200 36.181 273.491 36.299 M198.900 36.676 C 199.285 36.776,199.915 36.776,200.300 36.676 C 200.685 36.575,200.370 36.493,199.600 36.493 C 198.830 36.493,198.515 36.575,198.900 36.676 M249.491 49.499 L 256.781 49.618 256.901 56.509 L 257.020 63.400 257.110 56.300 L 257.200 49.200 249.700 49.290 L 242.200 49.381 249.491 49.499 M206.182 50.502 C 206.076 50.779,206.039 57.304,206.100 65.002 L 206.211 79.000 206.305 64.712 L 206.400 50.425 211.300 50.299 L 216.200 50.173 211.287 50.086 C 207.649 50.022,206.325 50.130,206.182 50.502 M211.694 67.100 L 211.787 78.600 211.900 67.300 L 212.012 56.000 223.200 56.000 L 234.388 56.000 234.500 67.300 L 234.613 78.600 234.706 67.100 L 234.800 55.600 223.200 55.600 L 211.600 55.600 211.694 67.100 M262.176 76.800 C 262.176 83.070,262.232 85.635,262.299 82.500 C 262.367 79.365,262.367 74.235,262.299 71.100 C 262.232 67.965,262.176 70.530,262.176 76.800 M173.793 95.700 L 173.800 112.600 187.000 112.608 L 200.200 112.616 187.104 112.503 L 174.009 112.389 173.898 95.595 L 173.787 78.800 173.793 95.700 M179.390 95.900 L 179.400 107.000 190.800 107.010 L 202.200 107.019 190.906 106.903 L 179.613 106.788 179.497 95.794 L 179.381 84.800 179.390 95.900 M223.294 97.100 L 223.387 108.600 223.500 97.306 L 223.612 86.012 234.906 85.900 L 246.200 85.787 234.700 85.694 L 223.200 85.600 223.294 97.100 M256.890 102.100 L 256.800 109.200 264.300 109.110 L 271.800 109.019 264.509 108.901 L 257.219 108.782 257.099 101.891 L 256.980 95.000 256.890 102.100 M239.680 114.698 C 241.594 114.771,244.834 114.771,246.880 114.698 C 248.926 114.626,247.360 114.566,243.400 114.565 C 239.440 114.565,237.766 114.624,239.680 114.698 M211.500 118.298 C 213.535 118.371,216.865 118.371,218.900 118.298 C 220.935 118.225,219.270 118.166,215.200 118.166 C 211.130 118.166,209.465 118.225,211.500 118.298 M280.594 119.497 L 291.987 119.612 292.103 130.506 L 292.219 141.400 292.209 130.400 L 292.200 119.400 280.700 119.391 L 269.200 119.381 280.594 119.497 M303.280 136.698 C 305.194 136.771,308.434 136.771,310.480 136.698 C 312.526 136.626,310.960 136.566,307.000 136.565 C 303.040 136.565,301.366 136.624,303.280 136.698 M253.693 148.894 L 253.600 159.988 242.100 160.100 L 230.600 160.213 242.113 160.306 C 251.095 160.379,253.668 160.289,253.819 159.894 C 253.926 159.616,253.962 154.531,253.900 148.594 L 253.786 137.800 253.693 148.894 M194.713 143.895 C 195.876 143.976,197.676 143.976,198.713 143.893 C 199.751 143.811,198.800 143.745,196.600 143.746 C 194.400 143.747,193.551 143.814,194.713 143.895 M198.177 149.715 C 198.069 149.998,198.034 153.283,198.100 157.015 L 198.221 163.800 198.310 156.709 L 198.400 149.618 205.500 149.499 L 212.600 149.380 205.487 149.290 C 199.992 149.220,198.330 149.317,198.177 149.715 M278.400 162.600 L 278.400 169.600 271.409 169.600 L 264.419 169.600 264.299 162.700 L 264.180 155.800 264.090 162.900 L 264.000 170.000 271.400 170.000 L 278.800 170.000 278.800 162.800 C 278.800 158.840,278.710 155.600,278.600 155.600 C 278.490 155.600,278.400 158.750,278.400 162.600 M294.924 161.099 C 298.183 161.167,303.403 161.166,306.524 161.099 C 309.646 161.031,306.980 160.976,300.600 160.977 C 294.220 160.977,291.666 161.032,294.924 161.099 M258.573 172.299 L 258.600 175.400 271.100 175.409 L 283.600 175.417 271.217 175.303 L 258.833 175.189 258.690 172.193 L 258.546 169.197 258.573 172.299 M160.100 185.887 C 160.705 185.978,161.695 185.978,162.300 185.887 C 162.905 185.795,162.410 185.720,161.200 185.720 C 159.990 185.720,159.495 185.795,160.100 185.887 M238.100 185.887 C 238.705 185.978,239.695 185.978,240.300 185.887 C 240.905 185.795,240.410 185.720,239.200 185.720 C 237.990 185.720,237.495 185.795,238.100 185.887 M199.505 215.883 C 200.002 215.979,200.722 215.975,201.105 215.875 C 201.487 215.775,201.080 215.696,200.200 215.701 C 199.320 215.705,199.007 215.787,199.505 215.883 M280.093 222.400 C 280.093 223.170,280.175 223.485,280.276 223.100 C 280.376 222.715,280.376 222.085,280.276 221.700 C 280.175 221.315,280.093 221.630,280.093 222.400 M64.909 225.200 C 64.909 226.190,64.987 226.595,65.082 226.100 C 65.178 225.605,65.178 224.795,65.082 224.300 C 64.987 223.805,64.909 224.210,64.909 225.200 M120.101 227.800 C 120.105 228.680,120.187 228.993,120.283 228.495 C 120.379 227.998,120.375 227.278,120.275 226.895 C 120.175 226.513,120.096 226.920,120.101 227.800 M199.305 227.887 C 199.914 227.979,200.814 227.977,201.305 227.882 C 201.797 227.787,201.300 227.711,200.200 227.714 C 199.100 227.717,198.697 227.795,199.305 227.887 M253.775 230.900 L 252.600 232.200 253.900 231.025 C 254.615 230.379,255.200 229.794,255.200 229.725 C 255.200 229.416,254.870 229.688,253.775 230.900 M213.301 273.400 C 213.305 274.280,213.387 274.593,213.483 274.095 C 213.579 273.598,213.575 272.878,213.475 272.495 C 213.375 272.113,213.296 272.520,213.301 273.400 M114.520 301.098 C 116.455 301.172,119.515 301.171,121.320 301.097 C 123.124 301.023,121.540 300.963,117.800 300.964 C 114.060 300.964,112.584 301.025,114.520 301.098 M157.300 301.097 L 170.800 301.211 170.800 304.198 L 170.800 307.186 160.700 307.293 L 150.600 307.400 150.581 312.800 L 150.562 318.200 150.693 312.900 L 150.823 307.600 161.028 307.600 L 171.232 307.600 171.116 304.300 L 171.000 301.000 157.400 300.992 L 143.800 300.984 157.300 301.097 M276.183 301.300 C 276.078 301.575,276.040 310.800,276.100 321.800 L 276.208 341.800 276.304 321.510 L 276.400 301.219 283.100 301.099 L 289.800 300.979 283.087 300.890 C 278.019 300.822,276.328 300.922,276.183 301.300 M312.100 301.096 C 313.365 301.175,315.435 301.175,316.700 301.096 C 317.965 301.016,316.930 300.951,314.400 300.951 C 311.870 300.951,310.835 301.016,312.100 301.096 M336.260 301.100 C 336.158 301.265,337.362 301.351,338.937 301.291 C 344.082 301.094,344.676 300.936,340.524 300.867 C 338.282 300.830,336.363 300.935,336.260 301.100 M247.905 307.083 C 248.402 307.179,249.122 307.175,249.505 307.075 C 249.887 306.975,249.480 306.896,248.600 306.901 C 247.720 306.905,247.407 306.987,247.905 307.083 M119.312 307.495 C 120.364 307.577,121.984 307.576,122.912 307.492 C 123.840 307.408,122.980 307.341,121.000 307.342 C 119.020 307.343,118.260 307.412,119.312 307.495 M282.977 307.715 C 282.868 307.999,282.834 311.194,282.900 314.815 L 283.021 321.400 283.111 314.516 L 283.200 307.632 286.500 307.498 L 289.800 307.363 286.487 307.281 C 284.093 307.223,283.120 307.343,282.977 307.715 M269.314 321.400 C 269.317 322.500,269.395 322.903,269.487 322.295 C 269.579 321.686,269.577 320.786,269.482 320.295 C 269.387 319.803,269.311 320.300,269.314 321.400 M150.558 329.800 C 150.558 332.880,150.621 334.087,150.697 332.482 C 150.773 330.878,150.773 328.358,150.696 326.882 C 150.619 325.407,150.557 326.720,150.558 329.800 M282.965 334.600 C 282.966 338.560,283.026 340.126,283.098 338.080 C 283.171 336.034,283.171 332.794,283.098 330.880 C 283.024 328.966,282.965 330.640,282.965 334.600 M171.737 338.600 C 171.739 340.360,171.809 341.030,171.893 340.089 C 171.978 339.149,171.977 337.709,171.891 336.889 C 171.805 336.070,171.736 336.840,171.737 338.600 M128.300 351.500 C 163.555 351.556,221.245 351.556,256.500 351.500 C 291.755 351.444,262.910 351.398,192.400 351.398 C 121.890 351.398,93.045 351.444,128.300 351.500 M328.962 352.954 C 328.845 353.259,328.819 354.294,328.905 355.254 L 329.060 357.000 329.130 354.929 C 329.184 353.330,329.360 352.817,329.900 352.676 C 330.556 352.504,330.555 352.490,329.887 352.446 C 329.496 352.421,329.079 352.649,328.962 352.954 M332.158 352.966 C 331.769 353.978,332.175 355.791,332.800 355.835 C 333.147 355.859,333.189 355.806,332.900 355.709 C 332.625 355.617,332.400 354.940,332.400 354.204 C 332.400 353.468,332.625 352.776,332.900 352.665 C 333.292 352.507,333.289 352.456,332.887 352.432 C 332.606 352.414,332.277 352.655,332.158 352.966 M324.900 355.876 C 325.285 355.976,325.915 355.976,326.300 355.876 C 326.685 355.775,326.370 355.693,325.600 355.693 C 324.830 355.693,324.515 355.775,324.900 355.876 M61.141 356.901 C 61.306 357.066,119.662 357.156,190.821 357.101 L 320.200 357.000 190.520 356.800 C 119.196 356.690,60.975 356.735,61.141 356.901 M39.999 364.500 C 40.000 364.665,41.755 364.771,43.900 364.736 C 47.913 364.670,47.445 364.504,42.699 364.310 C 41.214 364.250,39.999 364.335,39.999 364.500 M353.900 364.695 C 355.055 364.776,356.945 364.776,358.100 364.695 C 359.255 364.614,358.310 364.548,356.000 364.548 C 353.690 364.548,352.745 364.614,353.900 364.695 " stroke="none" fill="#80fc04" fill-rule="evenodd"></path></g></svg>