<svg id="svg" version="1.1" xmlns="http://www.w3.org/2000/svg" xmlns:xlink="http://www.w3.org/1999/xlink" width="400" height="400" viewBox="0, 0, 400,400"><g id="svgg"><path id="path0" d="M266.400 43.200 L 266.400 50.400 273.700 50.400 L 281.000 50.401 280.883 43.200 L 280.765 36.000 273.583 36.000 L 266.400 36.000 266.400 43.200 M198.400 36.669 C 194.569 37.339,191.653 39.057,189.689 41.800 C 187.528 44.818,185.766 47.344,180.345 55.200 C 179.510 56.410,178.137 58.390,177.294 59.600 C 176.450 60.810,174.950 62.970,173.960 64.400 C 172.969 65.830,171.496 67.940,170.685 69.088 C 169.875 70.236,168.368 72.396,167.337 73.888 C 166.307 75.380,164.775 77.590,163.933 78.800 C 163.091 80.010,161.716 81.990,160.876 83.200 C 160.037 84.410,158.476 86.660,157.407 88.200 C 156.338 89.740,154.780 91.990,153.945 93.200 C 153.110 94.410,151.673 96.480,150.751 97.800 C 146.917 103.289,145.929 104.707,144.476 106.800 C 143.637 108.010,142.076 110.260,141.007 111.800 C 139.938 113.340,138.380 115.590,137.545 116.800 C 136.710 118.010,135.273 120.080,134.351 121.400 C 130.517 126.889,129.529 128.307,128.076 130.400 C 127.237 131.610,125.676 133.860,124.607 135.400 C 123.538 136.940,121.980 139.190,121.145 140.400 C 120.310 141.610,118.873 143.680,117.951 145.000 C 114.117 150.489,113.129 151.907,111.676 154.000 C 110.837 155.210,109.276 157.460,108.207 159.000 C 107.138 160.540,105.580 162.790,104.745 164.000 C 103.910 165.210,102.473 167.280,101.551 168.600 C 97.717 174.089,96.729 175.507,95.276 177.600 C 94.437 178.810,92.876 181.060,91.807 182.600 C 90.738 184.140,89.180 186.390,88.345 187.600 C 87.510 188.810,86.073 190.880,85.151 192.200 C 84.229 193.520,82.738 195.658,81.837 196.952 C 80.937 198.245,79.428 200.405,78.485 201.752 C 77.541 203.098,76.157 205.100,75.409 206.200 C 74.660 207.300,73.230 209.370,72.230 210.800 C 65.673 220.176,65.040 221.471,65.096 225.400 C 65.136 228.245,65.965 230.732,67.619 232.970 C 69.211 235.124,72.169 239.312,74.400 242.569 C 75.390 244.015,76.830 246.099,77.600 247.200 C 78.370 248.301,79.780 250.326,80.734 251.701 C 81.688 253.075,83.308 255.404,84.334 256.875 C 85.360 258.346,86.830 260.471,87.600 261.598 C 88.370 262.725,89.810 264.793,90.800 266.194 C 91.790 267.595,93.410 269.920,94.400 271.360 C 96.231 274.025,99.245 278.357,100.891 280.689 L 101.800 281.978 114.921 281.989 L 128.042 282.000 128.439 280.860 C 130.569 274.749,135.895 265.147,138.880 262.033 L 140.861 259.968 138.530 258.407 C 128.977 252.011,123.508 244.016,120.738 232.400 C 117.067 217.006,126.631 198.254,142.200 190.316 C 155.488 183.542,172.837 184.564,184.474 192.806 C 191.501 197.784,193.584 198.547,200.200 198.567 C 206.186 198.585,208.844 197.744,213.687 194.303 C 244.087 172.701,284.727 195.479,279.876 231.400 C 278.376 242.506,271.210 252.593,259.641 259.884 C 259.554 259.939,260.116 260.573,260.892 261.292 C 263.710 263.908,268.420 272.017,271.334 279.270 L 272.351 281.800 285.546 281.905 L 298.740 282.011 299.870 280.379 C 300.492 279.482,301.810 277.585,302.800 276.164 C 303.790 274.742,305.410 272.398,306.400 270.953 C 307.390 269.509,308.830 267.439,309.600 266.354 C 310.370 265.268,311.810 263.200,312.800 261.759 C 313.790 260.317,315.438 257.936,316.463 256.469 C 317.488 255.001,318.884 252.990,319.565 252.000 C 320.246 251.010,321.658 248.980,322.702 247.490 C 323.746 245.999,325.410 243.601,326.400 242.161 C 327.390 240.721,329.346 237.980,330.747 236.071 C 337.471 226.909,337.276 223.788,329.271 212.400 C 327.211 209.470,324.715 205.893,322.849 203.200 C 322.011 201.990,320.571 199.920,319.649 198.600 C 318.727 197.280,317.295 195.206,316.466 193.991 C 315.636 192.776,314.529 191.201,314.004 190.491 L 313.050 189.200 298.325 189.200 L 283.600 189.200 283.600 182.200 L 283.600 175.200 271.200 175.200 L 258.800 175.200 258.800 172.200 L 258.800 169.200 225.800 169.200 L 192.800 169.200 192.800 156.600 L 192.800 144.000 196.600 144.000 L 200.400 144.000 200.400 128.200 L 200.400 112.400 187.200 112.400 L 174.000 112.400 174.000 95.600 L 174.000 78.800 190.000 78.800 L 206.000 78.800 206.000 64.600 L 206.000 50.400 211.223 50.400 L 216.445 50.400 215.523 48.889 C 209.526 39.067,204.635 35.577,198.400 36.669 M242.400 56.400 L 242.400 63.600 249.700 63.600 L 257.000 63.601 256.883 56.400 L 256.765 49.200 249.583 49.200 L 242.400 49.200 242.400 56.400 M211.600 67.200 L 211.600 78.400 223.200 78.400 L 234.800 78.400 234.800 67.200 L 234.800 56.000 223.200 56.000 L 211.600 56.000 211.600 67.200 M262.400 76.800 L 262.400 88.000 273.800 88.000 L 285.200 88.000 285.200 76.800 L 285.200 65.600 273.800 65.600 L 262.400 65.600 262.400 76.800 M179.512 95.588 L 179.624 106.776 191.012 106.888 L 202.400 107.000 202.400 95.700 L 202.400 84.400 190.900 84.400 L 179.400 84.399 179.512 95.588 M234.700 85.900 L 223.200 86.012 223.200 97.206 L 223.200 108.400 234.800 108.400 L 246.400 108.400 246.400 97.000 C 246.400 90.730,246.355 85.642,246.300 85.694 C 246.245 85.745,241.025 85.838,234.700 85.900 M257.117 102.000 L 257.235 109.200 264.417 109.200 L 271.600 109.200 271.600 102.000 L 271.600 94.800 264.300 94.800 L 257.000 94.799 257.117 102.000 M243.500 114.699 L 236.400 114.818 236.400 121.809 L 236.400 128.800 243.600 128.800 L 250.800 128.800 250.800 121.600 C 250.800 117.640,250.755 114.441,250.700 114.490 C 250.645 114.540,247.405 114.634,243.500 114.699 M208.000 125.200 L 208.000 132.400 215.200 132.400 L 222.400 132.400 222.400 125.200 L 222.400 118.000 215.200 118.000 L 208.000 118.000 208.000 125.200 M269.200 130.800 L 269.200 142.000 280.700 142.000 L 292.200 142.001 292.088 130.800 L 291.976 119.600 280.588 119.600 L 269.200 119.600 269.200 130.800 M299.600 143.700 L 299.600 150.800 306.800 150.800 L 314.000 150.800 314.000 143.817 L 314.000 136.835 306.800 136.717 L 299.599 136.600 299.600 143.700 M230.800 148.800 L 230.800 160.000 242.188 160.000 L 253.576 160.000 253.688 148.800 L 253.800 137.599 242.300 137.600 L 230.800 137.600 230.800 148.800 M205.500 149.499 L 198.400 149.618 198.400 156.609 L 198.400 163.600 205.600 163.600 L 212.800 163.600 212.800 156.400 C 212.800 152.440,212.755 149.241,212.700 149.290 C 212.645 149.340,209.405 149.434,205.500 149.499 M264.318 162.809 L 264.435 170.018 271.518 169.909 L 278.600 169.800 278.709 162.700 L 278.818 155.600 271.509 155.600 L 264.200 155.599 264.318 162.809 M289.200 172.400 L 289.200 183.600 300.600 183.600 L 312.000 183.600 312.000 172.400 L 312.000 161.200 300.600 161.200 L 289.200 161.200 289.200 172.400 M148.724 198.979 C 135.486 202.691,136.284 224.541,150.000 233.867 C 154.754 237.099,159.988 238.730,165.604 238.730 C 171.261 238.730,172.793 238.217,186.022 231.883 C 198.203 226.052,202.675 226.241,217.200 233.200 C 231.342 239.975,237.339 240.484,247.155 235.743 C 263.827 227.689,266.469 202.502,251.028 198.822 C 248.772 198.285,243.966 198.336,241.393 198.925 L 239.645 199.324 241.772 201.674 C 247.056 207.514,246.966 215.181,241.550 220.514 C 232.668 229.261,217.981 223.450,217.832 211.130 L 217.800 208.460 216.600 209.181 C 204.118 216.680,197.073 217.458,189.146 212.212 C 188.305 211.655,187.526 211.200,187.415 211.200 C 187.303 211.200,186.334 210.660,185.262 210.000 C 182.642 208.388,182.602 208.410,182.583 211.502 C 182.530 220.131,173.671 226.578,165.089 224.233 C 154.402 221.312,151.188 207.512,159.618 200.738 L 161.265 199.414 159.332 198.980 C 156.578 198.362,150.926 198.361,148.724 198.979 M165.400 252.393 C 160.554 253.651,157.455 257.230,157.427 261.602 C 157.394 266.898,161.597 270.461,176.000 277.346 C 179.630 279.082,183.076 280.838,183.658 281.248 C 186.662 283.368,187.400 281.932,187.075 274.600 C 186.385 259.026,176.978 249.389,165.400 252.393 M227.116 252.760 C 217.615 255.367,213.143 263.206,213.334 276.915 C 213.423 283.294,212.678 283.265,224.492 277.354 C 236.823 271.185,239.844 269.167,241.839 265.768 C 246.553 257.734,237.651 249.869,227.116 252.760 M77.000 304.414 C 75.240 307.281,73.048 310.835,72.130 312.313 C 71.211 313.791,69.809 316.080,69.014 317.400 C 68.219 318.720,66.779 321.060,65.814 322.600 C 64.849 324.140,63.409 326.480,62.614 327.800 C 61.819 329.120,60.379 331.460,59.414 333.000 C 58.449 334.540,57.009 336.880,56.214 338.200 C 55.419 339.520,53.979 341.860,53.014 343.400 C 52.049 344.940,50.609 347.280,49.814 348.600 C 49.019 349.920,47.574 352.260,46.602 353.800 C 45.631 355.340,44.480 357.230,44.045 358.000 C 43.610 358.770,42.612 360.384,41.827 361.587 C 39.935 364.486,39.866 364.401,44.100 364.391 L 47.800 364.381 50.158 360.691 C 51.454 358.661,52.960 356.280,53.503 355.400 C 54.046 354.520,55.595 352.060,56.945 349.934 C 58.295 347.808,60.480 344.346,61.800 342.242 C 63.120 340.138,65.103 337.018,66.207 335.308 L 68.214 332.200 80.284 332.094 L 92.354 331.988 93.003 332.894 C 93.968 334.242,96.327 337.934,97.471 339.885 L 98.476 341.600 102.238 341.600 C 104.307 341.600,106.000 341.505,106.000 341.389 C 106.000 341.145,102.427 335.115,98.186 328.200 C 96.567 325.560,93.991 321.330,92.462 318.800 C 90.933 316.270,88.137 311.680,86.248 308.600 C 84.360 305.520,82.316 302.145,81.707 301.100 C 80.293 298.674,80.700 298.387,77.000 304.414 M244.400 301.015 C 228.432 304.355,222.456 324.456,234.000 336.000 C 244.054 346.054,261.059 343.197,267.328 330.399 C 274.819 315.106,261.099 297.523,244.400 301.015 M110.799 321.300 L 110.800 341.600 114.200 341.600 L 117.600 341.600 117.600 334.600 L 117.600 327.600 122.185 327.600 C 128.104 327.600,130.500 326.788,133.425 323.792 C 138.693 318.396,138.215 307.863,132.524 303.948 C 129.081 301.579,128.473 301.453,119.299 301.218 L 110.799 301.000 110.799 321.300 M144.000 321.400 L 144.000 341.600 157.770 341.600 L 171.539 341.600 171.670 338.399 L 171.800 335.198 161.300 335.199 L 150.800 335.200 150.800 329.800 L 150.800 324.400 159.800 324.400 L 168.800 324.400 168.800 321.200 L 168.800 318.000 159.800 318.000 L 150.800 318.000 150.800 312.800 L 150.800 307.600 160.800 307.600 L 170.800 307.600 170.800 304.400 L 170.800 301.200 157.400 301.200 L 144.000 301.200 144.000 321.400 M177.263 302.300 C 178.129 304.450,180.065 309.430,180.800 311.400 C 181.211 312.500,182.111 314.840,182.800 316.600 C 183.489 318.360,184.389 320.700,184.800 321.800 C 185.211 322.900,186.111 325.240,186.800 327.000 C 187.489 328.760,188.389 331.100,188.800 332.200 C 189.211 333.300,190.114 335.640,190.807 337.400 C 191.499 339.160,192.262 341.185,192.500 341.900 C 193.248 344.142,192.669 345.189,200.416 327.600 C 202.208 323.530,203.742 320.132,203.823 320.048 C 204.010 319.855,203.977 319.775,209.034 332.600 C 211.376 338.540,213.335 343.449,213.389 343.510 C 213.442 343.570,214.075 342.040,214.795 340.110 C 216.362 335.907,216.915 334.441,217.930 331.800 C 218.353 330.700,219.885 326.609,221.334 322.708 C 223.729 316.259,225.070 312.718,226.600 308.800 C 229.869 300.429,229.961 301.200,225.689 301.200 L 222.178 301.200 217.989 313.986 C 215.685 321.018,213.710 326.776,213.600 326.782 C 213.490 326.788,212.780 325.137,212.022 323.114 C 211.264 321.091,209.005 315.378,207.001 310.418 L 203.358 301.400 200.079 301.284 C 198.276 301.220,196.800 301.247,196.800 301.345 C 196.800 301.442,197.610 303.655,198.599 306.261 C 200.762 311.958,200.757 310.765,198.639 316.135 C 197.670 318.591,196.306 322.087,195.608 323.905 C 194.119 327.779,194.053 327.774,192.614 323.712 C 191.230 319.808,189.065 313.629,187.528 309.200 C 186.879 307.330,185.978 304.765,185.525 303.500 L 184.702 301.200 180.761 301.200 L 176.820 301.200 177.263 302.300 M276.400 321.366 L 276.400 341.600 279.600 341.600 L 282.800 341.600 282.800 334.600 L 282.800 327.600 285.993 327.600 L 289.186 327.600 291.995 331.900 C 293.540 334.265,295.568 337.404,296.502 338.877 L 298.200 341.553 302.124 341.577 C 305.158 341.595,305.980 341.487,305.752 341.100 C 304.743 339.388,301.972 334.935,300.215 332.200 C 299.085 330.440,297.805 328.381,297.372 327.625 L 296.584 326.250 298.858 324.025 C 305.374 317.649,303.851 306.849,295.849 302.686 L 293.400 301.412 284.900 301.271 L 276.400 301.131 276.400 321.366 M312.511 304.900 C 313.841 306.935,316.095 310.400,317.520 312.600 C 318.945 314.800,320.730 317.533,321.487 318.674 L 322.862 320.748 320.584 324.274 C 319.330 326.213,317.732 328.700,317.030 329.800 C 316.329 330.900,315.113 332.790,314.327 334.000 C 313.053 335.961,310.668 339.746,309.854 341.100 C 309.621 341.487,310.498 341.600,313.746 341.600 L 317.940 341.600 319.099 339.500 C 321.251 335.600,326.053 327.402,326.385 327.063 C 326.566 326.878,332.328 335.158,339.189 345.463 L 351.664 364.200 356.004 364.400 L 360.344 364.600 359.497 363.200 C 358.315 361.246,346.243 342.882,342.011 336.600 C 340.084 333.740,337.028 329.076,335.219 326.236 C 331.536 320.454,331.608 321.222,334.364 317.000 C 335.225 315.680,336.488 313.700,337.171 312.600 C 337.853 311.500,339.117 309.520,339.979 308.200 C 340.841 306.880,342.181 304.765,342.956 303.500 L 344.366 301.200 340.283 301.216 L 336.200 301.232 334.769 303.716 C 333.982 305.082,332.182 308.222,330.769 310.693 C 327.779 315.923,328.117 315.710,326.623 313.299 C 325.975 312.255,323.945 309.105,322.111 306.300 L 318.777 301.200 314.435 301.200 L 310.093 301.200 312.511 304.900 M253.357 307.847 C 259.241 309.852,263.433 317.310,262.313 323.779 C 260.136 336.359,243.972 339.925,237.287 329.299 C 230.017 317.741,240.668 303.524,253.357 307.847 M126.692 308.206 C 130.733 309.828,131.632 315.930,128.292 319.075 C 126.578 320.691,125.278 321.069,121.100 321.167 L 117.600 321.249 117.600 314.425 L 117.600 307.600 121.392 307.600 C 123.847 307.600,125.715 307.813,126.692 308.206 M293.072 308.626 C 296.300 310.989,296.715 316.076,293.922 319.044 C 292.399 320.663,290.489 321.200,286.254 321.200 L 282.800 321.200 282.800 314.366 L 282.800 307.531 287.372 307.666 C 291.228 307.779,292.121 307.929,293.072 308.626 M85.170 320.400 L 88.833 326.200 80.558 326.308 C 71.058 326.433,71.563 326.567,73.087 324.324 C 74.193 322.697,74.812 321.738,78.632 315.735 C 80.542 312.733,80.151 312.454,85.170 320.400 M62.609 353.945 C 61.614 355.455,60.800 356.760,60.800 356.845 C 60.800 356.930,119.210 357.000,190.600 357.000 L 320.400 357.000 320.400 354.100 L 320.400 351.200 192.409 351.200 L 64.417 351.200 62.609 353.945 M323.200 354.200 L 323.200 356.800 325.000 356.800 C 325.990 356.800,326.800 356.620,326.800 356.400 C 326.800 356.180,326.260 356.000,325.600 356.000 C 324.412 356.000,324.400 355.978,324.400 353.800 C 324.400 352.111,324.261 351.600,323.800 351.600 C 323.328 351.600,323.200 352.156,323.200 354.200 M326.800 352.000 C 326.800 352.220,327.070 352.400,327.400 352.400 C 327.861 352.400,328.000 352.911,328.000 354.600 C 328.000 356.289,328.139 356.800,328.600 356.800 C 329.061 356.800,329.200 356.289,329.200 354.600 C 329.200 352.911,329.339 352.400,329.800 352.400 C 330.130 352.400,330.400 352.220,330.400 352.000 C 330.400 351.780,329.590 351.600,328.600 351.600 C 327.610 351.600,326.800 351.780,326.800 352.000 M331.200 354.200 L 331.200 356.800 332.771 356.800 C 334.694 356.800,335.600 355.978,335.600 354.233 C 335.600 352.549,334.543 351.600,332.669 351.600 L 331.200 351.600 331.200 354.200 M334.069 353.062 C 335.038 353.939,334.991 354.621,333.911 355.377 C 332.581 356.309,332.400 356.167,332.400 354.200 C 332.400 352.259,332.845 351.955,334.069 353.062 " stroke="none" fill="#0c0c0c" fill-rule="evenodd"></path><path id="path1" d="M280.965 43.000 C 280.966 46.960,281.026 48.526,281.098 46.480 C 281.171 44.434,281.171 41.194,281.098 39.280 C 281.024 37.366,280.965 39.040,280.965 43.000 M256.965 56.200 C 256.966 60.160,257.026 61.726,257.098 59.680 C 257.171 57.634,257.171 54.394,257.098 52.480 C 257.024 50.566,256.965 52.240,256.965 56.200 M206.181 64.600 C 206.180 72.520,206.234 75.817,206.299 71.926 C 206.365 68.035,206.365 61.555,206.300 57.526 C 206.234 53.497,206.181 56.680,206.181 64.600 M217.300 55.899 C 220.545 55.966,225.855 55.966,229.100 55.899 C 232.345 55.832,229.690 55.777,223.200 55.777 C 216.710 55.777,214.055 55.832,217.300 55.899 M262.176 76.800 C 262.176 83.070,262.232 85.635,262.299 82.500 C 262.367 79.365,262.367 74.235,262.299 71.100 C 262.232 67.965,262.176 70.530,262.176 76.800 M179.293 95.900 L 179.200 107.200 190.700 107.106 L 202.200 107.013 190.906 106.900 L 179.613 106.788 179.500 95.694 L 179.387 84.600 179.293 95.900 M228.924 85.899 C 232.183 85.967,237.403 85.966,240.524 85.899 C 243.646 85.831,240.980 85.776,234.600 85.777 C 228.220 85.777,225.666 85.832,228.924 85.899 M256.965 102.200 C 256.966 106.160,257.026 107.726,257.098 105.680 C 257.171 103.634,257.171 100.394,257.098 98.480 C 257.024 96.566,256.965 98.240,256.965 102.200 M239.680 114.698 C 241.594 114.771,244.834 114.771,246.880 114.698 C 248.926 114.626,247.360 114.566,243.400 114.565 C 239.440 114.565,237.766 114.624,239.680 114.698 M280.494 119.500 L 291.987 119.612 292.100 130.706 L 292.213 141.800 292.307 130.500 L 292.400 119.200 280.700 119.294 L 269.000 119.387 280.494 119.500 M303.280 136.698 C 305.194 136.771,308.434 136.771,310.480 136.698 C 312.526 136.626,310.960 136.566,307.000 136.565 C 303.040 136.565,301.366 136.624,303.280 136.698 M253.600 148.994 L 253.600 159.988 242.100 160.100 L 230.600 160.213 242.300 160.306 L 254.000 160.400 254.000 149.200 C 254.000 143.040,253.910 138.000,253.800 138.000 C 253.690 138.000,253.600 142.947,253.600 148.994 M198.090 156.500 L 198.180 163.800 198.299 156.709 L 198.418 149.618 205.509 149.499 L 212.600 149.380 205.300 149.290 L 198.000 149.200 198.090 156.500 M264.165 163.000 C 264.166 166.960,264.226 168.526,264.298 166.480 C 264.371 164.434,264.371 161.194,264.298 159.280 C 264.224 157.366,264.165 159.040,264.165 163.000 M294.924 161.099 C 298.183 161.167,303.403 161.166,306.524 161.099 C 309.646 161.031,306.980 160.976,300.600 160.977 C 294.220 160.977,291.666 161.032,294.924 161.099 M159.900 185.889 C 160.615 185.978,161.785 185.978,162.500 185.889 C 163.215 185.801,162.630 185.728,161.200 185.728 C 159.770 185.728,159.185 185.801,159.900 185.889 M237.900 185.889 C 238.615 185.978,239.785 185.978,240.500 185.889 C 241.215 185.801,240.630 185.728,239.200 185.728 C 237.770 185.728,237.185 185.801,237.900 185.889 M199.305 227.887 C 199.914 227.979,200.814 227.977,201.305 227.882 C 201.797 227.787,201.300 227.711,200.200 227.714 C 199.100 227.717,198.697 227.795,199.305 227.887 M114.520 301.098 C 116.455 301.172,119.515 301.171,121.320 301.097 C 123.124 301.023,121.540 300.963,117.800 300.964 C 114.060 300.964,112.584 301.025,114.520 301.098 M157.284 301.100 L 170.768 301.211 170.902 304.505 L 171.037 307.800 171.119 304.300 L 171.200 300.800 157.500 300.894 L 143.800 300.989 157.284 301.100 M276.096 321.300 L 276.193 341.800 276.300 321.510 L 276.407 301.219 283.104 301.099 L 289.800 300.979 282.900 300.890 L 276.000 300.800 276.096 321.300 M311.200 301.060 C 314.482 301.353,319.112 301.377,318.940 301.100 C 318.837 300.935,316.738 300.830,314.276 300.867 C 311.814 300.904,310.430 300.991,311.200 301.060 M338.300 301.095 C 339.455 301.176,341.345 301.176,342.500 301.095 C 343.655 301.014,342.710 300.948,340.400 300.948 C 338.090 300.948,337.145 301.014,338.300 301.095 M282.965 314.400 C 282.965 318.250,283.025 319.825,283.098 317.900 C 283.171 315.975,283.171 312.825,283.098 310.900 C 283.025 308.975,282.965 310.550,282.965 314.400 M282.965 334.600 C 282.966 338.560,283.026 340.126,283.098 338.080 C 283.171 336.034,283.171 332.794,283.098 330.880 C 283.024 328.966,282.965 330.640,282.965 334.600 M171.737 338.600 C 171.739 340.360,171.809 341.030,171.893 340.089 C 171.978 339.149,171.977 337.709,171.891 336.889 C 171.805 336.070,171.736 336.840,171.737 338.600 M324.900 355.876 C 325.285 355.976,325.915 355.976,326.300 355.876 C 326.685 355.775,326.370 355.693,325.600 355.693 C 324.830 355.693,324.515 355.775,324.900 355.876 M125.668 357.100 C 161.235 357.156,219.555 357.156,255.268 357.100 C 290.980 357.044,261.880 356.998,190.600 356.998 C 119.320 356.998,90.100 357.044,125.668 357.100 M39.999 364.500 C 40.000 364.665,41.845 364.771,44.100 364.736 C 48.365 364.669,47.881 364.498,42.899 364.309 C 41.304 364.249,39.999 364.335,39.999 364.500 M355.800 364.400 L 351.400 364.642 355.676 364.721 C 358.185 364.767,360.055 364.635,360.200 364.400 C 360.336 364.180,360.392 364.036,360.324 364.079 C 360.256 364.123,358.220 364.267,355.800 364.400 " stroke="none" fill="#100c0c" fill-rule="evenodd"></path><path id="path2" d="M280.965 43.000 C 280.966 46.960,281.026 48.526,281.098 46.480 C 281.171 44.434,281.171 41.194,281.098 39.280 C 281.024 37.366,280.965 39.040,280.965 43.000 M256.965 56.200 C 256.966 60.160,257.026 61.726,257.098 59.680 C 257.171 57.634,257.171 54.394,257.098 52.480 C 257.024 50.566,256.965 52.240,256.965 56.200 M206.181 64.600 C 206.180 72.520,206.234 75.817,206.299 71.926 C 206.365 68.035,206.365 61.555,206.300 57.526 C 206.234 53.497,206.181 56.680,206.181 64.600 M217.300 55.899 C 220.545 55.966,225.855 55.966,229.100 55.899 C 232.345 55.832,229.690 55.777,223.200 55.777 C 216.710 55.777,214.055 55.832,217.300 55.899 M262.176 76.800 C 262.176 83.070,262.232 85.635,262.299 82.500 C 262.367 79.365,262.367 74.235,262.299 71.100 C 262.232 67.965,262.176 70.530,262.176 76.800 M179.293 95.900 L 179.200 107.200 190.700 107.106 L 202.200 107.013 190.906 106.900 L 179.613 106.788 179.500 95.694 L 179.387 84.600 179.293 95.900 M228.924 85.899 C 232.183 85.967,237.403 85.966,240.524 85.899 C 243.646 85.831,240.980 85.776,234.600 85.777 C 228.220 85.777,225.666 85.832,228.924 85.899 M256.965 102.200 C 256.966 106.160,257.026 107.726,257.098 105.680 C 257.171 103.634,257.171 100.394,257.098 98.480 C 257.024 96.566,256.965 98.240,256.965 102.200 M239.680 114.698 C 241.594 114.771,244.834 114.771,246.880 114.698 C 248.926 114.626,247.360 114.566,243.400 114.565 C 239.440 114.565,237.766 114.624,239.680 114.698 M280.494 119.500 L 291.987 119.612 292.100 130.706 L 292.213 141.800 292.307 130.500 L 292.400 119.200 280.700 119.294 L 269.000 119.387 280.494 119.500 M303.280 136.698 C 305.194 136.771,308.434 136.771,310.480 136.698 C 312.526 136.626,310.960 136.566,307.000 136.565 C 303.040 136.565,301.366 136.624,303.280 136.698 M253.600 148.994 L 253.600 159.988 242.100 160.100 L 230.600 160.213 242.300 160.306 L 254.000 160.400 254.000 149.200 C 254.000 143.040,253.910 138.000,253.800 138.000 C 253.690 138.000,253.600 142.947,253.600 148.994 M198.090 156.500 L 198.180 163.800 198.299 156.709 L 198.418 149.618 205.509 149.499 L 212.600 149.380 205.300 149.290 L 198.000 149.200 198.090 156.500 M264.165 163.000 C 264.166 166.960,264.226 168.526,264.298 166.480 C 264.371 164.434,264.371 161.194,264.298 159.280 C 264.224 157.366,264.165 159.040,264.165 163.000 M294.924 161.099 C 298.183 161.167,303.403 161.166,306.524 161.099 C 309.646 161.031,306.980 160.976,300.600 160.977 C 294.220 160.977,291.666 161.032,294.924 161.099 M159.900 185.889 C 160.615 185.978,161.785 185.978,162.500 185.889 C 163.215 185.801,162.630 185.728,161.200 185.728 C 159.770 185.728,159.185 185.801,159.900 185.889 M237.900 185.889 C 238.615 185.978,239.785 185.978,240.500 185.889 C 241.215 185.801,240.630 185.728,239.200 185.728 C 237.770 185.728,237.185 185.801,237.900 185.889 M199.305 227.887 C 199.914 227.979,200.814 227.977,201.305 227.882 C 201.797 227.787,201.300 227.711,200.200 227.714 C 199.100 227.717,198.697 227.795,199.305 227.887 M114.520 301.098 C 116.455 301.172,119.515 301.171,121.320 301.097 C 123.124 301.023,121.540 300.963,117.800 300.964 C 114.060 300.964,112.584 301.025,114.520 301.098 M157.284 301.100 L 170.768 301.211 170.902 304.505 L 171.037 307.800 171.119 304.300 L 171.200 300.800 157.500 300.894 L 143.800 300.989 157.284 301.100 M276.096 321.300 L 276.193 341.800 276.300 321.510 L 276.407 301.219 283.104 301.099 L 289.800 300.979 282.900 300.890 L 276.000 300.800 276.096 321.300 M311.200 301.060 C 314.482 301.353,319.112 301.377,318.940 301.100 C 318.837 300.935,316.738 300.830,314.276 300.867 C 311.814 300.904,310.430 300.991,311.200 301.060 M338.300 301.095 C 339.455 301.176,341.345 301.176,342.500 301.095 C 343.655 301.014,342.710 300.948,340.400 300.948 C 338.090 300.948,337.145 301.014,338.300 301.095 M282.965 314.400 C 282.965 318.250,283.025 319.825,283.098 317.900 C 283.171 315.975,283.171 312.825,283.098 310.900 C 283.025 308.975,282.965 310.550,282.965 314.400 M282.965 334.600 C 282.966 338.560,283.026 340.126,283.098 338.080 C 283.171 336.034,283.171 332.794,283.098 330.880 C 283.024 328.966,282.965 330.640,282.965 334.600 M171.737 338.600 C 171.739 340.360,171.809 341.030,171.893 340.089 C 171.978 339.149,171.977 337.709,171.891 336.889 C 171.805 336.070,171.736 336.840,171.737 338.600 M324.900 355.876 C 325.285 355.976,325.915 355.976,326.300 355.876 C 326.685 355.775,326.370 355.693,325.600 355.693 C 324.830 355.693,324.515 355.775,324.900 355.876 M125.668 357.100 C 161.235 357.156,219.555 357.156,255.268 357.100 C 290.980 357.044,261.880 356.998,190.600 356.998 C 119.320 356.998,90.100 357.044,125.668 357.100 M39.999 364.500 C 40.000 364.665,41.845 364.771,44.100 364.736 C 48.365 364.669,47.881 364.498,42.899 364.309 C 41.304 364.249,39.999 364.335,39.999 364.500 M355.800 364.400 L 351.400 364.642 355.676 364.721 C 358.185 364.767,360.055 364.635,360.200 364.400 C 360.336 364.180,360.392 364.036,360.324 364.079 C 360.256 364.123,358.220 364.267,355.800 364.400 " stroke="none" fill="#100c0c" fill-rule="evenodd"></path><path id="path3" d="M280.965 43.000 C 280.966 46.960,281.026 48.526,281.098 46.480 C 281.171 44.434,281.171 41.194,281.098 39.280 C 281.024 37.366,280.965 39.040,280.965 43.000 M256.965 56.200 C 256.966 60.160,257.026 61.726,257.098 59.680 C 257.171 57.634,257.171 54.394,257.098 52.480 C 257.024 50.566,256.965 52.240,256.965 56.200 M206.181 64.600 C 206.180 72.520,206.234 75.817,206.299 71.926 C 206.365 68.035,206.365 61.555,206.300 57.526 C 206.234 53.497,206.181 56.680,206.181 64.600 M217.300 55.899 C 220.545 55.966,225.855 55.966,229.100 55.899 C 232.345 55.832,229.690 55.777,223.200 55.777 C 216.710 55.777,214.055 55.832,217.300 55.899 M262.176 76.800 C 262.176 83.070,262.232 85.635,262.299 82.500 C 262.367 79.365,262.367 74.235,262.299 71.100 C 262.232 67.965,262.176 70.530,262.176 76.800 M179.293 95.900 L 179.200 107.200 190.700 107.106 L 202.200 107.013 190.906 106.900 L 179.613 106.788 179.500 95.694 L 179.387 84.600 179.293 95.900 M228.924 85.899 C 232.183 85.967,237.403 85.966,240.524 85.899 C 243.646 85.831,240.980 85.776,234.600 85.777 C 228.220 85.777,225.666 85.832,228.924 85.899 M256.965 102.200 C 256.966 106.160,257.026 107.726,257.098 105.680 C 257.171 103.634,257.171 100.394,257.098 98.480 C 257.024 96.566,256.965 98.240,256.965 102.200 M239.680 114.698 C 241.594 114.771,244.834 114.771,246.880 114.698 C 248.926 114.626,247.360 114.566,243.400 114.565 C 239.440 114.565,237.766 114.624,239.680 114.698 M280.494 119.500 L 291.987 119.612 292.100 130.706 L 292.213 141.800 292.307 130.500 L 292.400 119.200 280.700 119.294 L 269.000 119.387 280.494 119.500 M303.280 136.698 C 305.194 136.771,308.434 136.771,310.480 136.698 C 312.526 136.626,310.960 136.566,307.000 136.565 C 303.040 136.565,301.366 136.624,303.280 136.698 M253.600 148.994 L 253.600 159.988 242.100 160.100 L 230.600 160.213 242.300 160.306 L 254.000 160.400 254.000 149.200 C 254.000 143.040,253.910 138.000,253.800 138.000 C 253.690 138.000,253.600 142.947,253.600 148.994 M198.090 156.500 L 198.180 163.800 198.299 156.709 L 198.418 149.618 205.509 149.499 L 212.600 149.380 205.300 149.290 L 198.000 149.200 198.090 156.500 M264.165 163.000 C 264.166 166.960,264.226 168.526,264.298 166.480 C 264.371 164.434,264.371 161.194,264.298 159.280 C 264.224 157.366,264.165 159.040,264.165 163.000 M294.924 161.099 C 298.183 161.167,303.403 161.166,306.524 161.099 C 309.646 161.031,306.980 160.976,300.600 160.977 C 294.220 160.977,291.666 161.032,294.924 161.099 M159.900 185.889 C 160.615 185.978,161.785 185.978,162.500 185.889 C 163.215 185.801,162.630 185.728,161.200 185.728 C 159.770 185.728,159.185 185.801,159.900 185.889 M237.900 185.889 C 238.615 185.978,239.785 185.978,240.500 185.889 C 241.215 185.801,240.630 185.728,239.200 185.728 C 237.770 185.728,237.185 185.801,237.900 185.889 M199.305 227.887 C 199.914 227.979,200.814 227.977,201.305 227.882 C 201.797 227.787,201.300 227.711,200.200 227.714 C 199.100 227.717,198.697 227.795,199.305 227.887 M114.520 301.098 C 116.455 301.172,119.515 301.171,121.320 301.097 C 123.124 301.023,121.540 300.963,117.800 300.964 C 114.060 300.964,112.584 301.025,114.520 301.098 M157.284 301.100 L 170.768 301.211 170.902 304.505 L 171.037 307.800 171.119 304.300 L 171.200 300.800 157.500 300.894 L 143.800 300.989 157.284 301.100 M276.096 321.300 L 276.193 341.800 276.300 321.510 L 276.407 301.219 283.104 301.099 L 289.800 300.979 282.900 300.890 L 276.000 300.800 276.096 321.300 M311.200 301.060 C 314.482 301.353,319.112 301.377,318.940 301.100 C 318.837 300.935,316.738 300.830,314.276 300.867 C 311.814 300.904,310.430 300.991,311.200 301.060 M338.300 301.095 C 339.455 301.176,341.345 301.176,342.500 301.095 C 343.655 301.014,342.710 300.948,340.400 300.948 C 338.090 300.948,337.145 301.014,338.300 301.095 M282.965 314.400 C 282.965 318.250,283.025 319.825,283.098 317.900 C 283.171 315.975,283.171 312.825,283.098 310.900 C 283.025 308.975,282.965 310.550,282.965 314.400 M282.965 334.600 C 282.966 338.560,283.026 340.126,283.098 338.080 C 283.171 336.034,283.171 332.794,283.098 330.880 C 283.024 328.966,282.965 330.640,282.965 334.600 M171.737 338.600 C 171.739 340.360,171.809 341.030,171.893 340.089 C 171.978 339.149,171.977 337.709,171.891 336.889 C 171.805 336.070,171.736 336.840,171.737 338.600 M324.900 355.876 C 325.285 355.976,325.915 355.976,326.300 355.876 C 326.685 355.775,326.370 355.693,325.600 355.693 C 324.830 355.693,324.515 355.775,324.900 355.876 M125.668 357.100 C 161.235 357.156,219.555 357.156,255.268 357.100 C 290.980 357.044,261.880 356.998,190.600 356.998 C 119.320 356.998,90.100 357.044,125.668 357.100 M39.999 364.500 C 40.000 364.665,41.845 364.771,44.100 364.736 C 48.365 364.669,47.881 364.498,42.899 364.309 C 41.304 364.249,39.999 364.335,39.999 364.500 M355.800 364.400 L 351.400 364.642 355.676 364.721 C 358.185 364.767,360.055 364.635,360.200 364.400 C 360.336 364.180,360.392 364.036,360.324 364.079 C 360.256 364.123,358.220 364.267,355.800 364.400 " stroke="none" fill="#100c0c" fill-rule="evenodd"></path><path id="path4" d="M280.965 43.000 C 280.966 46.960,281.026 48.526,281.098 46.480 C 281.171 44.434,281.171 41.194,281.098 39.280 C 281.024 37.366,280.965 39.040,280.965 43.000 M256.965 56.200 C 256.966 60.160,257.026 61.726,257.098 59.680 C 257.171 57.634,257.171 54.394,257.098 52.480 C 257.024 50.566,256.965 52.240,256.965 56.200 M206.181 64.600 C 206.180 72.520,206.234 75.817,206.299 71.926 C 206.365 68.035,206.365 61.555,206.300 57.526 C 206.234 53.497,206.181 56.680,206.181 64.600 M217.300 55.899 C 220.545 55.966,225.855 55.966,229.100 55.899 C 232.345 55.832,229.690 55.777,223.200 55.777 C 216.710 55.777,214.055 55.832,217.300 55.899 M262.176 76.800 C 262.176 83.070,262.232 85.635,262.299 82.500 C 262.367 79.365,262.367 74.235,262.299 71.100 C 262.232 67.965,262.176 70.530,262.176 76.800 M179.293 95.900 L 179.200 107.200 190.700 107.106 L 202.200 107.013 190.906 106.900 L 179.613 106.788 179.500 95.694 L 179.387 84.600 179.293 95.900 M228.924 85.899 C 232.183 85.967,237.403 85.966,240.524 85.899 C 243.646 85.831,240.980 85.776,234.600 85.777 C 228.220 85.777,225.666 85.832,228.924 85.899 M256.965 102.200 C 256.966 106.160,257.026 107.726,257.098 105.680 C 257.171 103.634,257.171 100.394,257.098 98.480 C 257.024 96.566,256.965 98.240,256.965 102.200 M239.680 114.698 C 241.594 114.771,244.834 114.771,246.880 114.698 C 248.926 114.626,247.360 114.566,243.400 114.565 C 239.440 114.565,237.766 114.624,239.680 114.698 M280.494 119.500 L 291.987 119.612 292.100 130.706 L 292.213 141.800 292.307 130.500 L 292.400 119.200 280.700 119.294 L 269.000 119.387 280.494 119.500 M303.280 136.698 C 305.194 136.771,308.434 136.771,310.480 136.698 C 312.526 136.626,310.960 136.566,307.000 136.565 C 303.040 136.565,301.366 136.624,303.280 136.698 M253.600 148.994 L 253.600 159.988 242.100 160.100 L 230.600 160.213 242.300 160.306 L 254.000 160.400 254.000 149.200 C 254.000 143.040,253.910 138.000,253.800 138.000 C 253.690 138.000,253.600 142.947,253.600 148.994 M198.090 156.500 L 198.180 163.800 198.299 156.709 L 198.418 149.618 205.509 149.499 L 212.600 149.380 205.300 149.290 L 198.000 149.200 198.090 156.500 M264.165 163.000 C 264.166 166.960,264.226 168.526,264.298 166.480 C 264.371 164.434,264.371 161.194,264.298 159.280 C 264.224 157.366,264.165 159.040,264.165 163.000 M294.924 161.099 C 298.183 161.167,303.403 161.166,306.524 161.099 C 309.646 161.031,306.980 160.976,300.600 160.977 C 294.220 160.977,291.666 161.032,294.924 161.099 M159.900 185.889 C 160.615 185.978,161.785 185.978,162.500 185.889 C 163.215 185.801,162.630 185.728,161.200 185.728 C 159.770 185.728,159.185 185.801,159.900 185.889 M237.900 185.889 C 238.615 185.978,239.785 185.978,240.500 185.889 C 241.215 185.801,240.630 185.728,239.200 185.728 C 237.770 185.728,237.185 185.801,237.900 185.889 M199.305 227.887 C 199.914 227.979,200.814 227.977,201.305 227.882 C 201.797 227.787,201.300 227.711,200.200 227.714 C 199.100 227.717,198.697 227.795,199.305 227.887 M114.520 301.098 C 116.455 301.172,119.515 301.171,121.320 301.097 C 123.124 301.023,121.540 300.963,117.800 300.964 C 114.060 300.964,112.584 301.025,114.520 301.098 M157.284 301.100 L 170.768 301.211 170.902 304.505 L 171.037 307.800 171.119 304.300 L 171.200 300.800 157.500 300.894 L 143.800 300.989 157.284 301.100 M276.096 321.300 L 276.193 341.800 276.300 321.510 L 276.407 301.219 283.104 301.099 L 289.800 300.979 282.900 300.890 L 276.000 300.800 276.096 321.300 M311.200 301.060 C 314.482 301.353,319.112 301.377,318.940 301.100 C 318.837 300.935,316.738 300.830,314.276 300.867 C 311.814 300.904,310.430 300.991,311.200 301.060 M338.300 301.095 C 339.455 301.176,341.345 301.176,342.500 301.095 C 343.655 301.014,342.710 300.948,340.400 300.948 C 338.090 300.948,337.145 301.014,338.300 301.095 M282.965 314.400 C 282.965 318.250,283.025 319.825,283.098 317.900 C 283.171 315.975,283.171 312.825,283.098 310.900 C 283.025 308.975,282.965 310.550,282.965 314.400 M282.965 334.600 C 282.966 338.560,283.026 340.126,283.098 338.080 C 283.171 336.034,283.171 332.794,283.098 330.880 C 283.024 328.966,282.965 330.640,282.965 334.600 M171.737 338.600 C 171.739 340.360,171.809 341.030,171.893 340.089 C 171.978 339.149,171.977 337.709,171.891 336.889 C 171.805 336.070,171.736 336.840,171.737 338.600 M324.900 355.876 C 325.285 355.976,325.915 355.976,326.300 355.876 C 326.685 355.775,326.370 355.693,325.600 355.693 C 324.830 355.693,324.515 355.775,324.900 355.876 M125.668 357.100 C 161.235 357.156,219.555 357.156,255.268 357.100 C 290.980 357.044,261.880 356.998,190.600 356.998 C 119.320 356.998,90.100 357.044,125.668 357.100 M39.999 364.500 C 40.000 364.665,41.845 364.771,44.100 364.736 C 48.365 364.669,47.881 364.498,42.899 364.309 C 41.304 364.249,39.999 364.335,39.999 364.500 M355.800 364.400 L 351.400 364.642 355.676 364.721 C 358.185 364.767,360.055 364.635,360.200 364.400 C 360.336 364.180,360.392 364.036,360.324 364.079 C 360.256 364.123,358.220 364.267,355.800 364.400 " stroke="none" fill="#100c0c" fill-rule="evenodd"></path></g></svg>